<?xml version="1.0" standalone="no"?>
<!DOCTYPE svg PUBLIC "-//W3C//DTD SVG 20010904//EN"
 "http://www.w3.org/TR/2001/REC-SVG-20010904/DTD/svg10.dtd">
<svg version="1.0" xmlns="http://www.w3.org/2000/svg"
 width="520.000000pt" height="520.000000pt" viewBox="0 0 520.000000 520.000000"
 preserveAspectRatio="xMidYMid meet">
<metadata>
Created by potrace 1.11, written by Peter Selinger 2001-2013
</metadata>
<g transform="translate(0.000000,520.000000) scale(0.100000,-0.100000)"
fill="#000000" stroke="none">
<path d="M2940 4230 c-179 -29 -387 -82 -501 -127 -70 -29 -194 -98 -229 -128
-8 -8 -45 -25 -81 -38 -37 -14 -138 -61 -225 -105 l-159 -80 -115 -6 c-63 -4
-146 -11 -184 -17 -67 -9 -112 -32 -100 -50 3 -5 -7 -14 -21 -19 -15 -6 -29
-18 -32 -28 -2 -9 -17 -25 -34 -34 -16 -10 -29 -25 -29 -36 0 -11 -7 -23 -16
-26 -11 -4 -15 -16 -13 -40 2 -19 0 -38 -4 -42 -4 -4 -7 -11 -7 -15 0 -13 48
-57 70 -64 11 -3 20 -10 20 -15 0 -36 301 -38 435 -3 l70 18 -1 -75 c-1 -41 5
-94 12 -117 8 -22 11 -49 8 -58 -4 -10 2 -28 14 -44 13 -18 19 -37 15 -50 -4
-14 2 -33 14 -49 13 -18 19 -38 16 -57 -3 -21 2 -37 17 -53 l22 -23 -22 -54
c-22 -53 -22 -105 0 -105 5 0 3 -19 -5 -41 -20 -55 -19 -76 3 -90 17 -11 17
-15 6 -48 -19 -52 -17 -81 7 -102 16 -14 19 -25 14 -48 -8 -39 3 -91 19 -91 9
0 11 -18 8 -64 -4 -57 -2 -66 16 -77 18 -11 20 -20 15 -55 -8 -64 4 -114 27
-114 17 0 20 -7 20 -55 0 -32 4 -55 11 -55 5 0 7 -5 3 -11 -5 -8 3 -10 23 -7
30 4 31 3 36 -40 6 -59 28 -80 66 -66 28 11 28 10 40 -37 15 -58 41 -72 75
-40 29 28 33 27 40 -11 9 -46 46 -91 69 -83 19 8 21 14 37 145 6 52 33 183 60
290 27 107 68 294 91 415 40 213 41 229 49 510 4 160 11 309 15 332 7 38 10
42 44 48 67 12 205 57 280 91 88 40 130 37 142 -10 11 -39 46 -75 68 -69 14 3
21 -4 30 -28 17 -48 40 -70 61 -59 15 8 19 4 25 -28 11 -60 23 -75 56 -70 26
4 30 1 44 -43 19 -56 40 -78 57 -61 19 19 25 14 37 -32 6 -24 19 -54 30 -67
17 -21 22 -22 41 -11 17 11 21 10 26 -5 13 -43 55 -123 64 -123 5 0 19 9 29
19 19 19 20 18 50 -30 23 -37 36 -49 55 -49 13 0 27 6 30 13 5 9 7 9 12 -1 10
-21 87 -92 100 -92 23 0 36 29 29 66 l-6 36 32 -36 c36 -42 84 -70 100 -60 7
4 9 24 5 55 -4 27 -4 49 0 49 4 0 38 -29 75 -65 63 -59 99 -80 99 -57 0 5 -16
49 -35 98 -20 49 -48 141 -64 204 -16 63 -46 153 -66 200 -21 47 -46 107 -56
133 -25 63 -125 260 -154 306 -26 40 -69 171 -59 180 3 3 76 6 162 6 138 0
175 -4 307 -32 83 -18 195 -34 250 -37 77 -4 90 -3 56 4 -62 13 -94 46 -86 86
3 17 1 42 -4 55 -5 14 -5 34 0 47 7 19 15 23 41 20 28 -3 40 -14 87 -81 29
-43 64 -83 77 -89 29 -13 30 -23 7 -38 -14 -8 -6 -9 32 -4 94 12 249 44 258
53 21 21 -4 39 -80 56 -76 17 -80 19 -158 96 -97 94 -145 118 -236 119 -74 0
-136 -18 -191 -57 l-38 -26 -98 17 c-103 17 -312 21 -395 7 l-47 -8 -32 55
c-49 86 -133 165 -203 191 -162 62 -358 75 -575 41z m-623 -306 c-3 -3 -12 -4
-19 -1 -8 3 -5 6 6 6 11 1 17 -2 13 -5z m67 -13 c10 -11 29 -22 43 -26 14 -3
23 -8 20 -11 -5 -5 -51 14 -97 41 -23 14 -24 15 -4 15 11 0 29 -9 38 -19z
m106 -45 c10 -28 38 -46 72 -46 17 0 27 -8 35 -30 9 -24 17 -30 41 -30 21 0
35 -8 46 -25 9 -14 27 -27 41 -31 14 -3 25 -11 25 -17 0 -19 32 -47 54 -47 13
0 27 -12 39 -33 l17 -32 -23 28 c-12 15 -30 27 -40 27 -9 0 -33 16 -54 35 -70
64 -81 72 -106 79 -14 3 -35 20 -47 36 -13 18 -30 30 -44 30 -21 0 -40 16 -75
63 -9 12 -10 17 -2 17 6 0 16 -11 21 -24z m-405 -24 c-34 -52 -41 -92 -21
-131 21 -41 27 -39 15 4 -14 48 3 104 42 140 l32 30 -28 -42 c-49 -75 -43
-155 14 -207 26 -24 26 -16 1 34 -28 56 -26 115 6 162 33 47 40 49 18 6 -42
-81 -36 -153 16 -211 l30 -32 -20 57 c-21 61 -25 120 -9 153 7 14 8 5 4 -30
-7 -68 16 -141 61 -193 44 -52 64 -55 29 -4 -27 39 -61 139 -51 149 3 4 6 1 6
-5 0 -31 47 -129 78 -164 29 -33 79 -68 95 -68 2 0 -13 18 -35 40 -21 23 -48
60 -59 83 -25 49 -17 42 36 -32 21 -30 59 -67 84 -82 49 -32 78 -38 46 -11
-11 9 -31 30 -45 47 -17 21 -11 17 21 -12 48 -42 107 -78 116 -70 2 3 -9 14
-26 26 -17 12 -40 36 -53 54 -20 29 -18 28 27 -12 58 -50 121 -85 141 -77 7 3
32 -1 55 -9 61 -22 70 -17 19 9 -25 13 -56 36 -70 51 -21 24 -18 23 26 -9 66
-47 129 -69 173 -61 l34 6 -30 19 c-45 27 -49 41 -6 19 21 -11 49 -19 63 -19
l25 0 -25 21 c-23 19 -21 19 15 -2 57 -32 60 -36 35 -49 -18 -10 -21 -10 -14
2 4 7 -2 5 -13 -5 -11 -10 -24 -17 -29 -15 -5 1 -20 -4 -33 -11 -14 -8 -21 -9
-17 -2 4 6 -9 2 -28 -10 -33 -19 -36 -20 -29 -3 6 16 3 16 -21 -4 -31 -24 -62
-30 -50 -10 5 7 -5 3 -20 -10 -33 -25 -55 -29 -35 -6 7 8 -11 1 -41 -18 -52
-32 -55 -33 -189 -36 -195 -6 -348 18 -741 115 -14 3 -32 7 -40 8 -8 2 -40 8
-70 15 -30 7 -72 16 -94 20 -34 7 -55 23 -56 41 0 3 15 22 33 42 l32 37 138 3
137 4 33 30 c45 43 81 52 152 41 78 -12 100 -6 53 14 -20 9 -39 26 -43 38 -7
21 -11 22 -67 16 -36 -3 -80 -17 -109 -33 -41 -22 -62 -26 -128 -27 -43 -1
-77 2 -74 7 2 4 28 7 56 7 44 0 59 5 87 30 19 16 44 29 55 30 15 0 17 2 6 9
-11 7 -9 12 10 24 25 17 195 97 205 97 3 0 3 -10 -1 -22 -6 -22 -6 -22 15 2
19 22 20 22 11 3 -18 -36 -13 -63 5 -28 15 29 43 65 51 65 2 0 -8 -17 -22 -38z
m815 -262 c0 -22 48 -59 69 -53 12 3 21 1 21 -5 0 -5 -14 -9 -30 -8 -43 3
-109 76 -68 76 4 0 8 -5 8 -10z m-260 -113 c13 -10 20 -17 14 -17 -7 0 -29 17
-51 38 -21 20 -28 28 -14 16 14 -11 37 -28 51 -37z m203 -35 c-14 -4 -78 29
-113 58 -14 11 7 4 50 -18 41 -20 70 -38 63 -40z"/>
<path d="M10 883 l0 -120 1022 -6 c562 -4 1727 -7 2590 -7 l1568 0 0 120 0
120 -1508 0 c-830 0 -1995 3 -2590 7 l-1082 6 0 -120z"/>
</g>
</svg>
