<svg xmlns="http://www.w3.org/2000/svg" height="200" width="1000" viewBox="0 0 1000 200" preserveAspectRatio="xMinYMin meet">
  <defs>
    <style type="text/css">
    <![CDATA[  
    #moon {
	fill:#37A850
    }

    .white {
	fill:white
    }

    .goose {
	fill:black
    }    
    
    #goose1, #goose2, #goose3, #goose4 {
	fill:#C3DEB4;
	opacity: 0;
    }

    @-webkit-keyframes fly {
        0%   { -webkit-transform: translate3d(0,0,0); }
	20%  { -webkit-transform: translate3d(0,0,0); }
        40%  { -webkit-transform: translate3d(900px,0,0); opacity: 1;}
	41%  { -webkit-transform: translate3d(900px,0,0); opacity: 0; }
	42%  { -webkit-transform: translate3d(-600px,0,0); opacity: 0; }
	43%  { -webkit-transform: translate3d(-600px,0,0); opacity: 1; }
	56%  { -webkit-transform: translate3d(0,0,0); opacity: 1; }
	100% { -webkit-transform: translate3d(0,0,0); opacity: 0; }
    }

    @keyframes fly {
        0%   { transform: translate3d(0,0,0); }
	20%  { transform: translate3d(0,0,0); }
        40%  { transform: translate3d(900px,0,0); opacity: 1;}
	41%  { transform: translate3d(900px,0,0); opacity: 0; }
	42%  { transform: translate3d(-600px,0,0); opacity: 0; }
	43%  { transform: translate3d(-600px,0,0); opacity: 1; }
	56%  { transform: translate3d(0,0,0); opacity: 1; }
	100% { transform: translate3d(0,0,0); opacity: 0; }
    }

    #Layer1 {
	-webkit-animation: fly 15s linear infinite;
	        animation: fly 15s linear infinite;
    }

    @-webkit-keyframes goose1 {
        0% { opacity: 1; }
	25% { opacity: 1; }
	50% { opacity: 0; }
	75% { opacity: 0; }
	100% { opacity: 0; }
    }

    @keyframes goose1 {
        0% { opacity: 1; }
	25% { opacity: 1; }
	50% { opacity: 0; }
	75% { opacity: 0; }
	100% { opacity: 0; }
    }

    #goose1 {
	-webkit-animation: goose1 .75s 3s infinite;
	        animation: goose1 .75s 3s infinite;
    }

    @-webkit-keyframes goose2 {
        0% { opacity: 0; }
	25% { opacity: 1; }
	50% { opacity: 1; }
	75% { opacity: 0; }
	100% { opacity: 0; }
    }

    @keyframes goose2 {
        0% { opacity: 0; }
	25% { opacity: 1; }
	50% { opacity: 1; }
	75% { opacity: 0; }
	100% { opacity: 0; }
    }

    #goose2 {
	-webkit-animation: goose2 .75s 3s infinite;
	        animation: goose2 .75s 3s infinite;
    }

    @-webkit-keyframes goose3 {
        0% { opacity: 0; }
	25% { opacity: 0; }
	50% { opacity: 1; }
	75% { opacity: 1; }
	100% { opacity: 0; }
    }

    @keyframes goose3 {
        0% { opacity: 0; }
	25% { opacity: 0; }
	50% { opacity: 1; }
	75% { opacity: 1; }
	100% { opacity: 0; }
    }

    #goose3 {
	-webkit-animation: goose3 .75s 3s infinite;
		animation: goose3 .75s 3s infinite;
    }

    @-webkit-keyframes goose4 {
        0% { opacity: 0; }
	25% { opacity: 0; }
	50% { opacity: 0; }
	75% { opacity: 1; }
	100% { opacity: 1; }
    }

    @keyframes goose4 {
        0% { opacity: 0; }
	25% { opacity: 0; }
	50% { opacity: 0; }
	75% { opacity: 1; }
	100% { opacity: 1; }
    }

    #goose4 {
	-webkit-animation: goose4 .75s 3s infinite;
		animation: goose4 .75s 3s infinite;
    }

    #line {
	fill:#DD515E;
    }

    @-webkit-keyframes wilton {
        0% { opacity: 0; }
	40% { opacity: 0; }
	100% { opacity: 1; }
    }

    @keyframes wilton {
        0% { opacity: 1; }
	1% { opacity: 0; }
	40% { opacity: 0; }
	100% { opacity: 1; }
    }

    #wilton {
	fill:black;
	-webkit-animation: wilton 2s;
	        animation: wilton 2s;
    }

    @-webkit-keyframes developing {
        0% { opacity: 0; }
	65% { opacity: 0; }
	100% { opacity: 1; }
    }

    @keyframes developing {
        0% { opacity: 1; }
	1% { opacity: 0; }
	65% { opacity: 0; }
	100% { opacity: 1; }
    }

    #developing {
	fill:#7F7F7F;
	-webkit-animation: developing 3s;
	        animation: developing 3s;
    }	
    ]]>
    </style>
  </defs>
  <g id="Layer1">
    <path id="goose4" d="M148 28.2c-1.5-1.5-4.3-4.5-5.6-5.9-1.4-1.3-3.2-3-4.1-3.9-0.9-0.8-2.4-2.4-3.3-3.6-0.9-1.2-2.1-1.5-1.1 1.1-1.2-0.8-2.3-1.3-2-0.3 0.4 1.1 0.4 1.1 0.4 1.1-1.1-0.6-1.9-0.7-1.5 0.2 0.4 0.9 0.5 1.1 0.5 1.1-1-0.4-1.4-0.2-0.9 0.6 0.5 0.8 0.8 1.1 0.8 1.1-0.8-0.2-1 0-0.4 0.8 0.6 0.7 1.2 1.4 1.2 1.4-0.9-0.1-0.7 0.3-0.3 0.7 0.3 0.4 1 1.2 1.2 1.4-0.6-0.2-0.7 0.2-0.4 0.6 0.3 0.4 1.2 1.2 1.2 1.2-0.5-0.2-0.7 0.1-0.6 0.4 0.1 0.4 1.2 1.3 1.6 1.6-0.4 0-0.8 0.2-0.2 0.7 0.5 0.5 1.4 1.2 1.4 1.2-0.5 0.1-0.3 0.5 0 0.8 0.3 0.3 1.7 1.3 2 1.6-0.2 0-0.3 0.1-0.4 0.1-1.2 0.1-2.8 0.2-3.9 0.3-1.9 0.2-2 0.6-1.8 0.9 0.1 0.3 0.2 0.4-0.2 0.3-0.5 0.1-1.1 0.4-0.9 1.1-0.6-0.2-1.4 0.4-1.1 1.1-0.6 0.1-1 0.9-0.4 1.5-0.4 0.2-0.3 0.8-0.1 0.9 0.2 0.2 0.4 0.3 0.4 0.4 0.1 0.1 0.4 0.3 1 0.3-0.5 0.4 1.7 0.9 3.6 0.8 14-0.4 15.3 5.9 30-1.8 2.3-1.5 16.2-2.7 14.7-6.1 0 0 0 0 0 0 3.8-0.8 7.6 0.1 9.4 0.6 1.8 0.4 3.6 0.7 6.4 0.7-2.1 0.1-2.6-1.2-2.4-1.8 0.2-0.5 0.1-0.7-0.1-1-0.1-0.2-0.4-1.2 0.6-1.5 0.9-0.3 1.3 0.4 2 1.5 0.6 0.9 0.6 1.4 1.6 1.9 1.1 0.5 0.1 0.8-0.2 0.8 0.2 0 0.4-0.1 0.7-0.1 1.5-0.2 4.5-0.7 4.9-0.9 0.4-0.2 0.3-0.6 0-0.7-0.3-0.2-1.1-0.2-2-0.4-0.8-0.2-1.5-0.7-2.3-1.6-0.7-0.8-1.3-1.8-3.5-2.3-2.2-0.5-4.1 0.4-4.9 1.1-0.8 0.6-1.1 0.4-1.8 0.3-0.8-0.2-1.8-0.3-2.7-0.4-0.9-0.1-3.2-0.2-4.1-0.1-0.9 0.1-2 0.7-2.4 0.4-0.7-0.5-1.9-2.5-2.4-3.2 0.8-1.7 1.6-2.3 1.8-4 0.2-1.9 0.6-1.4 0.9-2.5 0.3-1.1-0.1-1.6-0.4-1.5-0.2 0.1-0.8 1.1-1.1 1.4 0.2-1.4 1.3-2.9 1.2-3.1-0.2-0.3-0.3-1.2-0.7-0.6-0.3 0.6-0.2-0.4-0.1-0.8 0-0.4 0-2.4-0.6-2.1-0.7-0.4-1.3 1.2-0.8 2-0.1 0.3-0.1 0.3-0.1-0.2-0.1-0.6-0.4-1-0.7-0.5-0.3 0.5-1 2.5-1.1 2.6-0.1 0.1-0.1 0-0.2-0.3-0.1-0.3-0.4-1.5-0.7-0.7-0.2 0.7-0.4 1.1-0.4 1.8-0.1 0.6-0.1 0.8-0.2 0.4-0.1-0.4-0.4-1.5-0.7-0.6-0.3 0.9-0.4 1.8-0.4 2.1-0.4-1.2-0.5-1.1-0.7-0.5-0.2 0.5-0.3 1.7-0.4 2-0.1-0.5-0.3-1.2-0.6-1-0.3 0.3-0.3 2.1-0.4 2.4-0.2-1-0.5-1.4-0.7-0.8-0.2 0.6-0.4 1.4-0.4 1.7-0.2-0.9-0.5-1.1-0.7-0.5-0.1 0.2-0.1 0.4-0.1 0.7-0.3 0-0.7 0-1.1 0-0.2-0.4-0.5-0.8-0.7-1.1l0 0.4 0.6 0.7c-2.7 0.1-6.2 0.8-8.8 1.5-3.2 0.8-6.3 1.8-9.3 4.1z"/>
    <path id="goose3" d="M177.9 28.6c0.6 0 1.6-0.3 2.4-0.4 0.9-0.1 3.2-0.1 4.1 0.1 1 0.1 2 0.2 2.7 0.4 0.8 0.2 1.1 0.3 1.8-0.3 0.8-0.6 2.7-1.6 4.9-1.1 2.2 0.5 2.7 1.6 3.5 2.3 0.8 0.8 1.5 1.3 2.3 1.6 0.9 0.2 1.7 0.3 2 0.4 0.3 0.2 0.4 0.5 0 0.7-0.4 0.2-3.4 0.7-4.9 0.9-0.3 0.1-0.6 0.1-0.7 0.1 0.3-0.1 1.3-0.3 0.2-0.8-1-0.5-1-1-1.6-1.9-0.7-1-1.1-1.7-2-1.5-1 0.3-0.6 1.2-0.6 1.5 0.1 0.2 0.3 0.4 0.1 1-0.2 0.6 0.3 1.8 2.4 1.8-2.8-0.1-4.6-0.3-6.4-0.7-1.8-0.4-5.6-1.4-9.4-0.6 0 0 0 0 0 0 1.5 3.4-12.4 4.6-14.7 6.1-14.7 7.6-16 1.4-30 1.8-1.9 0.1-4.1-0.3-3.6-0.8-0.6-0.1-0.9-0.2-1-0.3 0-0.2-0.2-0.3-0.4-0.4-0.2-0.1-0.3-0.7 0.1-0.9-0.5-0.6-0.1-1.4 0.4-1.5-0.3-0.7 0.6-1.3 1.1-1.1-0.2-0.7 0.4-1.1 0.9-1.1 0.4 0.1 0.3-0.1 0.2-0.3-0.2-0.3-0.1-0.7 1.8-0.9 1.9-0.2 5.4-0.4 5.8-0.4 2.3-1.3 6.3-3.4 8.3-3.9 3-2.4 6.2-3.4 9.4-4.2 3.2-0.9 7.8-1.7 10.6-1.5 2.8 0.2 5.8 0.9 7.3 2.2 1.1 0.9 2 2.4 2.7 3.7z"/>
    <path id="goose2" d="M156.5 42.1c-0.2 1.1-0.3 2.1-0.3 3.6 0 1.8 0 2.3-0.4 3.5-0.4 1.2-1.1 3.5-1.5 4.6-0.4 1-1.1 2.4-1.3 3-0.3 0.6-0.7 1.8-0.8 2.8-0.1 0.9-1.1 1.1-1.9-0.8-0.7 0.6-1.4 1-1.8 0.3-0.4-0.8-0.4-0.9-0.4-0.9-0.7 0.4-1.5 0.5-1.6-0.2-0.2-0.7-0.2-0.9-0.2-0.9-0.7 0.3-1.2 0.2-1.3-0.5-0.1-0.6 0.1-0.8 0.1-0.8-0.7 0.2-1 0-1-0.6 0.1-0.6 0.2-1.1 0.2-1.1-0.8 0.1-0.9-0.2-0.8-0.6 0.1-0.3 0.2-0.9 0.2-1.1-0.4 0.1-0.8-0.1-0.8-0.4 0-0.3 0.3-0.9 0.3-0.9-0.4 0.1-0.8-0.1-0.8-0.3-0.1-0.3 0.3-1 0.5-1.2-0.4 0-0.9-0.1-0.7-0.6 0.2-0.4 0.6-0.9 0.6-0.9-0.6-0.1-0.7-0.4-0.6-0.6 0.1-0.2 0.8-1 0.9-1.2-0.7-0.1-1.3-0.4-0.7-1.1-0.8-0.3-0.9-0.8-0.6-0.9 0 0 0.1 0 0.1-0.1-0.1 0-0.1-0.1-0.2-0.1 0 0-0.1 0-0.1 0-0.1-0.1-0.4-0.4-0.5-0.5-0.7-0.9-1-2.3-0.5-4.2-2.5 0.9-4.5 1-6.4 1-1.9 0.1-4.1-0.3-3.6-0.8-0.6-0.1-0.9-0.2-1-0.3 0-0.2-0.2-0.3-0.4-0.4-0.2-0.1-0.3-0.7 0.1-0.9-0.5-0.6-0.1-1.4 0.4-1.5-0.3-0.7 0.6-1.3 1.1-1.1-0.2-0.7 0.4-1.1 0.9-1.1 0.4 0.1 0.3-0.1 0.2-0.3-0.2-0.3-0.1-0.7 1.8-0.9 1.9-0.2 5.4-0.4 5.8-0.4 2.3-1.3 6.3-3.4 8.3-3.9 3-2.4 6.2-3.4 9.4-4.2 3.2-0.9 7.8-1.7 10.6-1.5 2.8 0.2 5.8 0.9 7.3 2.2 1.1 0.9 2 2.4 2.7 3.7 0.6 0 1.6-0.3 2.4-0.4 0.9-0.1 3.2-0.1 4.1 0.1 1 0.1 2 0.2 2.7 0.4 0.8 0.2 1.1 0.3 1.8-0.3 0.8-0.6 2.7-1.6 4.9-1.1 2.2 0.5 2.7 1.6 3.5 2.3 0.8 0.8 1.5 1.3 2.3 1.6 0.9 0.2 1.7 0.3 2 0.4 0.3 0.2 0.4 0.5 0 0.7-0.4 0.2-3.4 0.7-4.9 0.9-0.3 0.1-0.6 0.1-0.7 0.1 0.3-0.1 1.3-0.3 0.2-0.8-1-0.5-1-1-1.6-1.9-0.7-1-1.1-1.7-2-1.5-1 0.3-0.6 1.2-0.6 1.5 0.1 0.2 0.3 0.4 0.1 1-0.2 0.6 0.3 1.8 2.4 1.8-2.8-0.1-4.6-0.3-6.4-0.7-1.6-0.4-5-1.2-8.5-0.7 0.5 0.6-2.7 0.6-2.5 1.4 1.3 2 7.6 3.4 8 5.1 0.4 1.7 1.1 2.9 1.5 3.9 0.5 1 0.3 1.1-0.1 1.1-0.4-0.1-2.6-1.2-3.1-1.5 0.3 1.3 0.4 2.2 0.2 2.4-0.3 0.3-1.6-0.2-2.2-0.7-0.6-0.5-0.3 0.4-0.2 0.8 0.1 0.4 0.1 1.4-1.1 1.1-0.9-0.3-1.3-0.9-1.5-1.1-0.1-0.2-0.2-0.3-0.2 0.2-0.1 0.6-0.7 0.9-1.2 0.4-0.4-0.4-0.8-1-0.8-1.1-0.1-0.1-0.2 0-0.3 0.2-0.1 0.3-0.7 1.3-1.2 0.7-0.4-0.7-0.6-1-0.7-1.6-0.2-0.5-0.2-0.7-0.3-0.4-0.2 0.4-0.7 1.3-1.2 0.6-0.5-0.8-0.6-1.6-0.7-1.9-0.7 1.1-1 1-1.3 0.5-0.3-0.5-0.6-1.6-0.7-1.8-0.1 0.5-0.5 1.1-1 0.9-0.5-0.2-0.6-1.9-0.6-2.2-0.3 0.9-0.8 1.3-1.2 0.7-0.2-0.3-0.4-0.8-0.6-1.1l-0.4 0.1c-0.2 0.2-0.4 0.3-0.7 0.2l-0.4 0.1c0-0.2-0.1-0.4-0.1-0.6-0.4 0.2-0.7 0.3-1.2-0.2-1.5 0.8-2.8 1.3-4.1 1.7-1.3 0.4-3.3 0.9-3.7 0.9 0 0.4-0.1 0.8-0.1 1.2l0.3 0z"/>
    <path id="goose1" d="M177.9 28.6c0.6 0 1.6-0.3 2.4-0.4 0.9-0.1 3.2-0.1 4.1 0.1 1 0.1 2 0.2 2.7 0.4 0.8 0.2 1.1 0.3 1.8-0.3 0.8-0.6 2.7-1.6 4.9-1.1 2.2 0.5 2.7 1.6 3.5 2.3 0.8 0.8 1.5 1.3 2.3 1.6 0.9 0.2 1.7 0.3 2 0.4 0.3 0.2 0.4 0.5 0 0.7-0.4 0.2-3.4 0.7-4.9 0.9-0.3 0.1-0.6 0.1-0.7 0.1 0.3-0.1 1.3-0.3 0.2-0.8-1-0.5-1-1-1.6-1.9-0.7-1-1.1-1.7-2-1.5-1 0.3-0.6 1.2-0.6 1.5 0.1 0.2 0.3 0.4 0.1 1-0.2 0.6 0.3 1.8 2.4 1.8-2.8-0.1-4.6-0.3-6.4-0.7-1.8-0.4-5.6-1.4-9.4-0.6 0 0 0 0 0 0 0.4 1.5 0.9 3 1 3.1 0.3 0.2 2.7 4.7 3.5 6.9 1.3 2.6 1.8 4.1 2.2 6 0.4 1.9 1.1 3.4 1.5 4.5 0.5 1.2 0.3 1.3-0.1 1-0.4-0.2-2.6-2.3-3.1-2.9 0.3 1.4 0.4 2.4 0.2 2.5-0.3 0.2-1.6-0.9-2.2-1.6-0.6-0.8-0.3 0.3-0.2 0.7 0.1 0.4 0.1 1.5-1.1 0.7-0.9-0.7-1.3-1.5-1.5-1.7-0.1-0.3-0.2-0.3-0.2 0.1-0.1 0.5-0.7 0.6-1.2-0.1-0.4-0.6-0.8-1.3-0.8-1.5-0.1-0.1-0.2-0.1-0.3 0.1-0.1 0.2-0.7 1-1.2 0.2-0.4-0.8-0.6-1.3-0.7-1.9-0.2-0.6-0.2-0.8-0.3-0.5-0.2 0.3-0.7 1.1-1.2 0.1-0.5-1-0.6-1.9-0.7-2.2-0.7 0.8-1 0.6-1.3-0.1-0.3-0.6-0.6-1.8-0.7-2.1-0.1 0.4-0.5 0.9-1 0.4-0.5-0.4-0.6-2.1-0.6-2.5-0.3 0.8-0.8 0.9-1.2 0.2-0.4-0.7-0.7-1.6-0.7-1.8-0.3 0.7-0.9 0.6-1.3-0.1-0.2-0.4-0.3-1.2-0.4-1.6-0.4 0.2-0.7 0.3-1.2-0.2-1.5 0.8-2.8 1.3-4.1 1.7-1.3 0.4-3.3 0.9-3.7 0.9-0.3 2.6-0.4 4.5-0.4 7.7 0 3.2 0 4-0.4 6.2-0.4 2.1-1.1 6.2-1.5 8.1-0.4 1.8-1.1 4.2-1.3 5.3-0.3 1.1-0.7 3.2-0.8 4.9-0.1 1.6-1.1 2-1.9-1.5-0.7 1.1-1.4 1.8-1.8 0.4-0.4-1.5-0.4-1.6-0.4-1.6-0.7 0.8-1.5 1-1.6-0.3-0.2-1.3-0.2-1.5-0.2-1.5-0.7 0.6-1.2 0.3-1.3-0.8-0.1-1.1 0.1-1.5 0.1-1.5-0.7 0.3-1-0.1-1-1.1 0.1-1 0.2-2 0.2-2-0.8 0.2-0.9-0.4-0.8-1 0.1-0.6 0.2-1.7 0.2-1.9-0.4 0.2-0.8-0.2-0.8-0.8 0-0.6 0.3-1.7 0.3-1.7-0.4 0.2-0.8-0.1-0.8-0.6-0.1-0.5 0.3-1.8 0.5-2.2-0.4-0.1-0.9-0.2-0.7-1 0.2-0.7 0.6-1.6 0.6-1.6-0.6-0.2-0.7-0.7-0.6-1.1 0.1-0.4 0.8-1.8 0.9-2.2-0.7-0.1-1.3-0.7-0.7-1.9-0.8-0.5-0.9-1.4-0.6-1.7 0.2-0.2 0-0.3-0.2-0.4-0.2-0.2-0.6-0.8-0.4-1.1 0.1-0.3 0.3-0.6 0-0.8-0.3-0.3-0.4-1.5-0.3-1.8 0.1-0.4 0.3-0.4 0-0.8-0.3-0.4-0.1-1.1 0.2-1.7-2.5 0.9-4.5 1-6.4 1-1.9 0.1-4.1-0.3-3.6-0.8-0.6-0.1-0.9-0.2-1-0.3 0-0.2-0.2-0.3-0.4-0.4-0.2-0.1-0.3-0.7 0.1-0.9-0.5-0.6-0.1-1.4 0.4-1.5-0.3-0.7 0.6-1.3 1.1-1.1-0.2-0.7 0.4-1.1 0.9-1.1 0.4 0.1 0.3-0.1 0.2-0.3-0.2-0.3-0.1-0.7 1.8-0.9 1.9-0.2 5.4-0.4 5.8-0.4 2.3-1.3 6.3-3.4 8.3-3.9 3-2.4 6.2-3.4 9.4-4.2 3.2-0.9 7.8-1.7 10.6-1.5 2.8 0.2 5.8 0.9 7.3 2.2 1.1 0.9 2 2.4 2.7 3.7z"/>
  </g>
  <g id="Layer2">    
    <rect class="white" x="130" y="10" width="56" height="60" />
  </g>
  <g id="Layer3">
    <g id="logo">
      <path id="moon" d="M170 50c0 16.4-13.3 29.6-29.6 29.6-16.4 0-29.6-13.3-29.6-29.6 0-16.3 13.3-29.6 29.6-29.6 16.3 0 29.6 13.3 29.6 29.6z"/>
      <path class="goose" d="M177.6 28.5c0.5 0 1.6-0.2 2.6-0.4 0.9-0.1 3.2-0.1 4.1 0 0.9 0.1 2 0.3 2.7 0.4 0.8 0.2 1.1 0.4 1.8-0.3 0.8-0.6 2.8-1.6 4.9-1.1 2.2 0.5 2.7 1.6 3.5 2.4 0.8 0.8 1.4 1.3 2.3 1.6 0.9 0.2 1.7 0.2 2 0.4 0.3 0.2 0.5 0.5 0 0.7-0.4 0.2-3.4 0.7-4.9 0.9-0.3 0-0.6 0.1-0.7 0.1 0.3 0 1.2-0.3 0.2-0.8-0.9-0.5-1-1-1.6-1.9-0.7-1-1.1-1.7-2-1.4-0.9 0.3-0.6 1.2-0.5 1.5 0.1 0.2 0.3 0.5 0 1-0.2 0.5 0.3 1.9 2.4 1.7-2.8 0-4.6-0.3-6.4-0.7-1.8-0.4-5.6-1.3-9.4-0.5-3.8 0.8-1.6-3.6-1.1-3.6z"/>
      <path class="goose" d="M178.6 31.6c0.5 1.7 1 3.5 1.2 3.7 0.3 0.2 2.8 4.7 3.4 7 1.3 2.6 1.8 4.2 2.2 6.1 0.4 1.9 1.1 3.4 1.5 4.5 0.5 1.2 0.3 1.3-0.1 1-0.4-0.3-2.6-2.3-3.2-2.9 0.3 1.4 0.4 2.4 0.1 2.5-0.3 0.1-1.6-0.9-2.2-1.7-0.5-0.8-0.3 0.3-0.2 0.7 0 0.4 0.1 1.5-1 0.7-0.9-0.7-1.3-1.4-1.4-1.7-0.1-0.3-0.2-0.3-0.3 0.1-0.1 0.5-0.7 0.5-1.2-0.1-0.5-0.6-0.8-1.3-0.9-1.4-0.1-0.1-0.2-0.1-0.3 0.1-0.1 0.2-0.7 1-1.1 0.1-0.4-0.8-0.6-1.3-0.8-1.9-0.1-0.6-0.1-0.8-0.3-0.5-0.1 0.3-0.7 1-1.2 0-0.5-1-0.6-1.9-0.7-2.2-0.7 0.8-0.9 0.6-1.3 0-0.3-0.7-0.6-1.8-0.7-2.1-0.1 0.5-0.5 0.9-1 0.5-0.5-0.4-0.5-2.1-0.6-2.5-0.3 0.8-0.9 0.9-1.2 0.2-0.4-0.7-0.7-1.6-0.7-1.8-0.3 0.7-0.9 0.6-1.3-0.1-0.3-0.5-0.4-1.2-0.4-1.6-0.3 0.2-0.7 0.3-1.1-0.2-1.5 0.8-2.8 1.3-4.1 1.7-1.3 0.4-3.3 0.9-3.7 0.9-0.3 2.6-0.4 4.5-0.4 7.7 0 3.2 0 4-0.4 6.1-0.4 2.1-1.1 6.2-1.5 8.1-0.4 1.9-1 4.2-1.3 5.3-0.3 1.1-0.7 3.2-0.8 4.9-0.1 1.7-1 2-1.9-1.5-0.7 1.1-1.4 1.8-1.8 0.4-0.4-1.4-0.4-1.6-0.4-1.6-0.7 0.8-1.5 0.9-1.6-0.3-0.2-1.3-0.2-1.5-0.2-1.5-0.7 0.6-1.2 0.3-1.3-0.9 0-1.1 0-1.5 0-1.5-0.6 0.3-1-0.1-0.9-1 0-1 0.2-2 0.2-2-0.8 0.1-0.9-0.5-0.8-1 0.1-0.6 0.2-1.7 0.3-1.9-0.5 0.3-0.8-0.2-0.8-0.8 0-0.6 0.3-1.7 0.3-1.7-0.4 0.2-0.8-0.1-0.9-0.6-0.1-0.5 0.3-1.8 0.6-2.2-0.4 0-0.9-0.2-0.7-1 0.2-0.7 0.6-1.6 0.6-1.6-0.6-0.2-0.7-0.8-0.6-1.1 0.1-0.4 0.7-1.9 0.9-2.2-0.7-0.1-1.3-0.7-0.7-1.9-0.8-0.5-0.9-1.4-0.6-1.7 0.3-0.3 0-0.3-0.2-0.4-0.2-0.2-0.6-0.8-0.5-1.1 0.1-0.3 0.3-0.6 0-0.8-0.3-0.3-0.5-1.4-0.4-1.8 0.1-0.4 0.4-0.4 0-0.9-0.3-0.4-0.1-1.1 0.2-1.6-2.5 0.9-4.5 0.9-6.4 1-1.9 0.1-4.1-0.3-3.6-0.8-0.6 0-0.9-0.2-0.9-0.3 0-0.2-0.2-0.3-0.5-0.4-0.2-0.1-0.3-0.7 0.1-0.9-0.5-0.6-0.1-1.4 0.4-1.5-0.3-0.7 0.6-1.3 1.1-1.1-0.2-0.7 0.4-1.1 0.9-1.1 0.5 0 0.4-0.1 0.2-0.4-0.1-0.3 0-0.7 1.9-0.9 1.9-0.2 5.4-0.5 5.8-0.5 2.3-1.3 6.3-3.3 8.3-3.9 3-2.4 6.2-3.4 9.4-4.3 3.2-0.9 7.8-1.6 10.6-1.5 2.8 0.2 5.8 0.9 7.3 2.2 1.6 1.4 3.1 4.2 3.5 5.6 0.4 1.4-0.6-0.8 0 1.2z"/>
      <path class="white" d="M163.8 38.1c-0.3-0.2-0.6-0.8-0.8-1.5-0.7 0.5-1.5-0.1-1.8-1-0.6 0.1-1.2-0.3-1.3-1-0.7 0.2-1.4-0.4-1.8-1.3-0.4 0.1-1.1-0.2-1.3-1-0.8 0.3-1.4-0.4-1.8-1.2-0.8 0.3-1.5-0.4-1.9-1.3-0.6 0.3-1.7 0-2.1-0.8-0.5 0-2 0.1-2.1-0.8 0.4 0.4 1.3 1 2.2 0.5 0.2 0.5 1.2 1.4 2.2 0.8 0.3 1.4 1.3 1.7 2 1.2 0.2 1.4 1.1 1.6 1.7 1.2 0.2 0.9 0.6 1.2 1.4 1.2 0.5 1.5 1.2 1.5 1.7 1.1 0.1 1.4 0.8 1.4 1.3 1 0.1 1.3 0.8 1.7 1.7 1.2 0.3 1.1 0.5 1.5 0.7 1.8 0 0 0 0-0.1 0z"/>
      <path class="white" d="M140.1 32.2c1.4-0.8 3.6-1.9 4.8-2.3-0.4 0.6-0.3 0.6-0.3 1 0.3-0.7 0.7-1.2 1-1.4-0.6 0.7-0.9 1.5-0.8 2.2 0.2-1.3 1.2-2.1 1.8-2.4-1.2 1.1-2.4 2.8-0.7 4.4-0.9-1.7-0.4-3.3 1.4-4.5-1.7 2.1-2.3 3.9 0.1 5.6-1.7-2.5-1.5-3.6 0.6-5.6-1.6 2.1-2.2 3.9 0.2 6.1-1.6-3.1-0.8-4.2-0.4-5-0.6 2.4-0.3 4.4 2.1 6.1-2.2-2.9-1.5-3.7-1.6-4.3 0.5 2.7 1.4 4.3 3.7 5.1-1.8-1.5-2.4-2.8-2.6-3.7 1 1.7 2.3 3.6 4.2 4-1.2-0.7-2.1-2.3-2.5-2.8 0.8 0.9 2.3 2.9 4 3.1-1.6-1-2-1.9-2.3-2.3 1.2 1.2 2.7 2.4 4 2.6-1.6-1.1-2.1-1.6-2.3-2.3 1.3 1.5 2.8 2.5 4.6 2.5-2.1-0.6-2.9-1.7-3.1-2.3 1.4 1.4 3.1 2.4 4.7 2.3-2.2-0.5-3-1.5-3.3-1.9 1.7 1.2 3 1.7 4 1.7-1.6-0.6-1.1-0.7-2.3-1.6-0.1-0.2 1.5 1.4 3.2 1.3-0.7-0.4-1-0.8-1.1-0.9 1 0.6 1.6 0.9 2 1.1-0.2 0.3-0.6 0.6-0.9 0.7 0.1-0.3 0.3-0.7 0.3-0.7-0.5 0.7-0.7 0.8-1.1 1 0.3-0.3 0.3-0.5 0.3-0.5-0.6 0.6-1.1 0.8-1.3 0.9 0.3-0.1 0.5-0.6 0.5-0.6-0.8 0.7-1.3 0.9-1.8 1 0.5-0.3 0.6-0.7 0.6-0.7-0.9 0.8-1.5 0.9-1.9 1 0.2-0.1 0.6-0.8 0.6-0.8-0.7 0.7-1.6 1.1-1.8 1.2 0.5-0.4 0.8-0.8 0.8-1-0.7 0.5-1.1 1-1.6 1.1-0.5 0.1-0.4 0.3-1.6 0.4-1.2 0.1-3.3 0.1-5 0-1.6-0.2-4.1-0.5-5.7-0.9-1.6-0.4-2.9-0.8-3.5-0.9-0.6-0.1-1.9-0.2-2-0.5-0.6 0.2-1.3-0.1-1.4-0.3-0.8 0-1.4 0-1.7-0.3-0.8 0.1-1.5-0.2-1.5-0.7-0.1-0.5 0.5-0.5 0.5-0.5-0.1-0.2 0.1-0.8 0.4-0.8 0.1-0.2 0.4-0.4 1.1-0.3 0.7 0.1 1.7 0 2.2-0.1 0.4-0.1 0.9-0.1 1.4 0 0.4 0.1 0.9 0.2 1.4-0.4 0.5-0.6 1.3-1.2 2.3-1.2 0.9 0.1 2.1 0.3 2.4 0.3 0.3 0 0.1-0.2-0.2-0.3-0.3-0.1-1 0-1.2-1.3-1.5 0-2.4 0.3-3.2 0.7-0.8 0.4-0.9 0.8-1.4 0.7-0.5-0.2-1.6-0.2-2.2 0-0.6 0.2-0.9 0-0.3-0.2 0.6-0.2 1.9-0.2 2.2-0.2 0.2-0.3 0.5-0.4 0.8-0.5-0.1-0.2 0.3-0.6 1.2-0.7l-0.7-0.2z"/>
    </g>
  </g>
  <g id="Layer4">    
    <rect id="line" x="1" y="119" width="1000" height="2">
	<animate attributeType="XML"
                 attributeName="width"
                 from="1" to="1000"
                 dur="1s"
                 repeatCount="1"/>
    </rect>
  </g>
  <g id="Layer5">
    <path id="wilton" d="M139.68 99.8c0-6.45 0-7.63-0.09-8.99-0.09-1.45-0.5-2.17-1.44-2.38-0.47-0.13-1.02-0.18-1.53-0.17-0.43 0-0.68-0.09-0.68-0.42 0-0.26 0.34-0.35 1.02-0.34 1.61 0 4.28 0.12 5.52 0.12 1.06 0 3.56-0.13 5.18-0.12 0.55 0 0.9 0.08 0.89 0.34 0.01 0.33-0.25 0.43-0.67 0.42-0.43 0-0.76 0.05-1.28 0.13-1.15 0.21-1.49 0.93-1.57 2.42-0.09 1.36-0.08 2.54-0.09 8.99l-0.01 7.47c0 4.12 0 7.47 0.18 9.3 0.12 1.14 0.42 1.9 1.69 2.08 0.59 0.08 1.53 0.16 2.17 0.16 0.47 0 0.68 0.13 0.68 0.35 0 0.3-0.34 0.42-0.81 0.42-2.8 0-5.47-0.13-6.62-0.13-0.97 0-3.65 0.13-5.34 0.13-0.55 0-0.85-0.13-0.85-0.43 0-0.21 0.17-0.34 0.68-0.34 0.64-0.01 1.15-0.08 1.53-0.17 0.85-0.18 1.1-0.89 1.23-2.12 0.21-1.79 0.21-5.14 0.21-9.26l0-7.47zm24.48 7.48c0 5.44 0 8.36 0.89 9.12 0.72 0.64 1.83 0.93 5.13 0.94 2.25 0 3.9-0.04 4.96-1.19 0.51-0.55 1.02-1.74 1.11-2.54 0.04-0.39 0.13-0.64 0.47-0.65 0.3 0.01 0.34 0.21 0.34 0.72 0 0.48-0.3 3.65-0.64 4.88-0.26 0.93-0.47 1.15-2.68 1.15-3.06 0-5.26-0.09-7.18-0.13-1.91-0.09-3.44-0.12-5.17-0.13-0.47 0-1.4 0.04-2.42 0.04-0.98 0.04-2.08 0.09-2.93 0.09-0.55 0-0.85-0.13-0.85-0.43 0-0.2 0.17-0.34 0.68-0.34 0.64-0.01 1.15-0.08 1.53-0.16 0.85-0.18 1.06-1.11 1.23-2.33 0.21-1.78 0.21-5.14 0.21-9.04l0-7.47c0-6.45 0-7.64-0.08-8.98-0.08-1.45-0.42-2.13-1.82-2.43-0.34-0.08-0.85-0.13-1.4-0.13-0.46 0-0.72-0.09-0.72-0.38 0-0.3 0.3-0.38 0.93-0.38 2 0 4.67 0.13 5.82 0.12 1.02 0 4.12-0.12 5.77-0.12 0.59 0 0.89 0.09 0.89 0.38 0 0.3-0.25 0.38-0.77 0.38-0.47 0-1.14 0.04-1.65 0.13-1.15 0.21-1.49 0.93-1.57 2.42-0.09 1.36-0.09 2.55-0.09 8.99l-0.01 7.47zm23.99-17.39l-6.32 0.16c-2.46 0.09-3.48 0.31-4.11 1.24-0.42 0.63-0.64 1.14-0.72 1.48-0.09 0.34-0.21 0.51-0.47 0.51-0.3 0-0.38-0.22-0.39-0.68 0-0.68 0.81-4.55 0.89-4.89 0.12-0.55 0.26-0.81 0.51-0.8 0.34 0 0.77 0.42 1.83 0.51 1.23 0.13 2.84 0.21 4.24 0.21l16.8 0c1.36 0 2.29-0.13 2.93-0.21 0.63-0.13 0.97-0.22 1.14-0.21 0.3 0 0.34 0.25 0.34 0.9 0 0.88-0.12 3.81-0.12 4.91-0.04 0.43-0.13 0.69-0.39 0.68-0.34 0-0.42-0.21-0.46-0.84l-0.04-0.47c-0.09-1.11-1.23-2.29-5.01-2.38l-5.35-0.12 0 17.4c-0.01 3.91-0.01 7.27 0.21 9.08 0.13 1.2 0.38 2.12 1.65 2.3 0.6 0.08 1.53 0.16 2.16 0.16 0.47 0 0.68 0.13 0.68 0.34 0 0.29-0.34 0.43-0.81 0.43-2.8 0-5.48-0.14-6.67-0.13-0.97 0-3.65 0.13-5.35 0.12-0.55 0-0.85-0.13-0.84-0.42 0-0.21 0.17-0.35 0.67-0.35 0.64 0 1.15-0.08 1.53-0.16 0.85-0.18 1.1-1.11 1.23-2.33 0.22-1.78 0.22-5.14 0.22-9.04l0-17.4zm19.31 13.66c0-7.26 4.79-16.63 17.53-16.64 10.57 0.01 17.14 6.16 17.14 15.89 0 9.72-6.79 17.4-17.56 17.39-12.18 0-17.1-9.12-17.1-16.64zm28.73 0.81c0-9.5-5.47-15.4-12.43-15.41-4.88 0-10.44 2.72-10.45 13.28 0 8.83 4.88 15.83 13.03 15.83 2.97 0.01 9.85-1.44 9.85-13.7zm17.4 9.47c0.09 3.31 0.63 4.41 1.48 4.71 0.72 0.25 1.53 0.29 2.21 0.29 0.47 0 0.72 0.09 0.72 0.35 0 0.34-0.38 0.42-0.98 0.42-2.76 0-4.45-0.13-5.26-0.12-0.39-0.01-2.37 0.12-4.58 0.12-0.55 0-0.93-0.05-0.93-0.43-0.01-0.25 0.25-0.35 0.68-0.34 0.55 0 1.31-0.04 1.91-0.21 1.1-0.34 1.27-1.57 1.32-5.26l0.38-25.12c-0.01-0.86 0.12-1.45 0.55-1.45 0.46 0 0.84 0.55 1.56 1.32 0.51 0.55 6.96 7.47 13.15 13.62 2.89 2.88 8.63 9 9.34 9.68l0.21 0-0.43-19.06c-0.04-2.59-0.42-3.4-1.44-3.81-0.63-0.26-1.65-0.26-2.24-0.26-0.51 0-0.69-0.13-0.68-0.38 0-0.33 0.46-0.38 1.1-0.38 2.2-0.01 4.24 0.12 5.13 0.12 0.47 0.01 2.08-0.13 4.16-0.12 0.55 0 0.98 0.04 0.98 0.38 0 0.25-0.26 0.39-0.77 0.38-0.42 0.01-0.77 0-1.27 0.13-1.19 0.34-1.53 1.23-1.57 3.61l-0.47 26.77c0 0.94-0.17 1.32-0.55 1.32-0.47 0-0.98-0.46-1.45-0.93-2.67-2.55-8.1-8.11-12.52-12.49-4.62-4.58-9.33-9.89-10.1-10.7l-0.13 0.01 0.46 17.82zm-121.99 16.51l-2.6 0.07c-1.01 0.04-1.44 0.12-1.7 0.5-0.17 0.27-0.26 0.47-0.3 0.61-0.04 0.14-0.09 0.21-0.19 0.21-0.12 0-0.16-0.09-0.16-0.28 0-0.28 0.34-1.87 0.37-2.01 0.06-0.23 0.11-0.33 0.21-0.33 0.14 0 0.32 0.17 0.75 0.21 0.5 0.06 1.17 0.09 1.74 0.09l6.92 0c1.12 0 1.53-0.17 1.67-0.17 0.12 0 0.14 0.11 0.14 0.37 0 0.37-0.05 1.57-0.05 2.03-0.02 0.17-0.05 0.27-0.16 0.28-0.14 0-0.18-0.09-0.19-0.35l-0.02-0.19c-0.04-0.45-0.51-0.94-2.06-0.97l-2.2-0.06 0 7.16c-0.01 1.6 0 2.98 0.08 3.73 0.05 0.49 0.16 0.88 0.68 0.95 0.24 0.03 0.63 0.06 0.89 0.06 0.19 0 0.28 0.05 0.28 0.14 0 0.12-0.14 0.18-0.33 0.18-1.15 0-2.25-0.05-2.74-0.06-0.4 0.01-1.5 0.06-2.2 0.05-0.23-0.01-0.35-0.05-0.35-0.18 0-0.08 0.07-0.13 0.28-0.13 0.26 0 0.47-0.04 0.63-0.08 0.35-0.06 0.45-0.45 0.5-0.96 0.09-0.73 0.09-2.11 0.09-3.71l0-7.15zm19.02 4.57c0.05 0 0.1-0.03 0.11-0.12l0-0.37c0-2.65 0-3.14-0.04-3.7-0.04-0.6-0.17-0.88-0.75-1-0.14-0.04-0.44-0.05-0.68-0.05-0.19 0-0.29-0.04-0.3-0.16 0-0.12 0.12-0.16 0.36-0.16 0.95 0 2.05 0.05 2.52 0.05 0.42 0 1.52-0.05 2.2-0.05 0.24 0 0.37 0.03 0.37 0.15 0 0.12-0.11 0.16-0.32 0.16-0.14 0-0.29 0.02-0.5 0.06-0.47 0.08-0.61 0.38-0.64 0.99-0.03 0.56-0.04 1.05-0.04 3.7l0 3.07c0 1.6 0 2.98 0.09 3.73 0.05 0.49 0.16 0.87 0.68 0.95 0.25 0.03 0.63 0.07 0.89 0.07 0.19-0.01 0.28 0.05 0.27 0.13 0 0.13-0.14 0.18-0.34 0.18-1.14 0-2.24-0.05-2.73-0.05-0.4-0.01-1.5 0.05-2.18 0.05-0.24 0-0.37-0.05-0.37-0.17 0-0.09 0.07-0.14 0.28-0.14 0.26 0 0.47-0.03 0.63-0.07 0.35-0.07 0.44-0.46 0.51-0.96 0.09-0.73 0.09-2.11 0.09-3.72l0-1.54c0-0.07-0.05-0.1-0.1-0.1l-6.67 0c-0.05 0-0.11 0.02-0.11 0.11l0 1.54c0 1.6 0 2.98 0.09 3.73 0.06 0.49 0.16 0.88 0.68 0.95 0.24 0.03 0.64 0.07 0.89 0.07 0.19 0 0.28 0.05 0.28 0.14 0 0.13-0.15 0.18-0.35 0.18-1.13 0-2.23-0.05-2.72-0.05-0.41 0-1.51 0.05-2.2 0.05-0.22 0-0.35-0.05-0.35-0.18 0-0.09 0.07-0.14 0.28-0.14 0.26 0 0.47-0.03 0.63-0.07 0.35-0.07 0.43-0.46 0.51-0.97 0.08-0.73 0.08-2.11 0.09-3.72l-0.01-3.07c0.01-2.66 0-3.15-0.03-3.7-0.04-0.6-0.17-0.87-0.75-1-0.14-0.03-0.43-0.05-0.68-0.04-0.19-0.01-0.29-0.04-0.29-0.16 0-0.12 0.12-0.16 0.37-0.16 0.94 0 2.04 0.05 2.51 0.05 0.42 0.01 1.52-0.05 2.2-0.05 0.24 0 0.37 0.04 0.37 0.16 0 0.12-0.1 0.16-0.31 0.16-0.14 0-0.3 0.02-0.51 0.05-0.47 0.09-0.61 0.38-0.65 0.99-0.03 0.56-0.03 1.05-0.03 3.71l0 0.36c0 0.09 0.05 0.12 0.1 0.12l6.67 0zm8.01-0.49c0-2.65 0-3.14-0.03-3.7-0.04-0.6-0.18-0.87-0.76-0.99-0.13-0.03-0.43-0.05-0.68-0.05-0.19 0-0.3-0.04-0.29-0.16 0-0.12 0.12-0.15 0.38-0.16 0.93 0.01 2.03 0.05 2.52 0.06 0.56 0 4.03 0 4.36-0.02 0.33-0.04 0.61-0.08 0.75-0.11 0.08-0.01 0.19-0.06 0.28-0.06 0.08 0 0.1 0.06 0.1 0.15 0 0.12-0.09 0.33-0.14 1.13-0.02 0.17-0.06 0.94-0.09 1.15-0.01 0.09-0.05 0.19-0.17 0.2-0.12 0-0.16-0.09-0.16-0.25 0-0.12-0.02-0.42-0.1-0.63-0.13-0.31-0.3-0.53-1.17-0.63-0.3-0.03-2.13-0.07-2.48-0.07-0.09 0-0.13 0.05-0.12 0.18l0 4.42c0 0.12 0.01 0.19 0.12 0.19 0.39 0 2.39 0 2.79-0.03 0.42-0.04 0.68-0.09 0.84-0.26 0.12-0.14 0.19-0.23 0.27-0.23 0.07 0 0.12 0.04 0.12 0.14 0 0.1-0.09 0.38-0.14 1.28-0.03 0.34-0.07 1.04-0.07 1.16 0 0.14 0 0.34-0.16 0.33-0.12 0-0.16-0.07-0.16-0.16-0.02-0.17-0.01-0.4-0.07-0.63-0.08-0.35-0.33-0.61-0.97-0.68-0.34-0.03-2.07-0.05-2.48-0.05-0.08 0-0.1 0.07-0.1 0.18l0 1.37c0 0.6-0.02 2.2 0 2.71 0.03 1.2 0.32 1.46 2.09 1.46 0.45 0.01 1.19 0.01 1.64-0.2 0.45-0.21 0.66-0.58 0.78-1.29 0.04-0.2 0.07-0.27 0.19-0.26 0.14 0 0.14 0.14 0.14 0.32 0 0.39-0.14 1.59-0.23 1.93-0.12 0.46-0.28 0.45-0.94 0.45-2.64 0.01-3.81-0.11-4.84-0.1-0.4 0-1.5 0.05-2.2 0.05-0.23 0-0.35-0.05-0.35-0.18 0-0.09 0.07-0.13 0.28-0.13 0.26 0 0.47-0.04 0.63-0.08 0.35-0.07 0.43-0.46 0.5-0.96 0.09-0.74 0.09-2.11 0.09-3.73l0-3.07zm14.72-3.35c-0.21-0.64-0.41-1.06-0.65-1.23-0.19-0.12-0.54-0.16-0.7-0.16-0.18 0-0.28-0.02-0.28-0.16 0-0.12 0.14-0.16 0.39-0.16 0.91 0 1.87 0.05 2.02 0.05 0.16 0 0.93-0.05 1.94-0.05 0.24 0 0.37 0.05 0.37 0.16 0 0.14-0.14 0.15-0.31 0.16-0.14 0-0.32 0-0.44 0.06-0.16 0.07-0.19 0.19-0.19 0.39 0 0.23 0.17 0.82 0.38 1.61 0.29 1.15 1.92 6.43 2.23 7.42l0.05 0 3.39-9.1c0.19-0.48 0.3-0.62 0.43-0.63 0.2 0 0.28 0.27 0.51 0.83l3.63 8.78 0.05 0c0.31-1.17 1.71-5.78 2.32-7.83 0.12-0.4 0.18-0.77 0.18-1.01 0-0.28-0.16-0.52-0.84-0.52-0.18 0-0.3-0.05-0.3-0.15 0-0.12 0.14-0.15 0.41-0.16 0.92 0 1.66 0.05 1.81 0.05 0.12 0 0.87-0.05 1.45-0.05 0.19 0 0.31 0.04 0.31 0.14 0 0.12-0.09 0.17-0.24 0.17-0.17 0.01-0.42 0.01-0.61 0.08-0.42 0.17-0.61 0.85-0.98 1.86-0.8 2.19-2.64 7.75-3.49 10.37-0.19 0.61-0.28 0.81-0.5 0.81-0.18 0-0.28-0.21-0.54-0.86l-3.63-8.75-0.04 0.01c-0.33 0.89-2.65 7.07-3.4 8.67-0.34 0.71-0.42 0.92-0.63 0.92-0.17 0-0.26-0.19-0.4-0.65l-3.7-11.09zm20.49 3.36c0-2.65 0-3.14-0.03-3.7-0.04-0.59-0.21-0.88-0.6-0.97-0.19-0.05-0.42-0.07-0.63-0.07-0.18 0.01-0.28-0.03-0.27-0.17 0-0.11 0.14-0.14 0.42-0.14 0.66 0 1.76 0.05 2.26 0.05 0.44 0 1.47-0.05 2.13-0.05 0.22 0.01 0.36 0.03 0.37 0.14 0 0.14-0.1 0.17-0.28 0.17-0.17 0.01-0.31 0.02-0.52 0.05-0.47 0.09-0.61 0.38-0.65 1-0.04 0.56-0.03 1.05-0.04 3.7l0 3.07c0 1.69 0 3.07 0.07 3.83 0.05 0.48 0.17 0.78 0.7 0.85 0.24 0.03 0.62 0.07 0.89 0.07 0.19 0 0.28 0.05 0.28 0.14 0 0.12-0.14 0.18-0.33 0.18-1.15 0-2.25-0.05-2.72-0.05-0.4-0.01-1.5 0.05-2.2 0.05-0.22 0-0.35-0.05-0.35-0.17 0-0.09 0.07-0.14 0.28-0.13 0.26-0.01 0.47-0.04 0.63-0.07 0.34-0.07 0.45-0.37 0.51-0.87 0.09-0.73 0.08-2.11 0.09-3.81l0-3.07zm10.07 3.08c0 2.23 0 3.43 0.37 3.75 0.29 0.26 0.75 0.39 2.11 0.39 0.92 0 1.61-0.02 2.04-0.49 0.21-0.23 0.42-0.72 0.46-1.05 0.01-0.15 0.05-0.26 0.19-0.26 0.12-0.01 0.14 0.09 0.14 0.29 0 0.2-0.12 1.51-0.26 2.02-0.1 0.38-0.18 0.47-1.1 0.47-2.51 0-3.67-0.11-5.08-0.1-0.4 0-1.5 0.05-2.2 0.05-0.23 0-0.35-0.05-0.35-0.18 0-0.08 0.07-0.14 0.27-0.13 0.27 0 0.48-0.04 0.63-0.07 0.36-0.07 0.44-0.45 0.51-0.96 0.09-0.73 0.09-2.11 0.09-3.71l0-3.08c0-2.65 0-3.14-0.04-3.7-0.03-0.59-0.17-0.87-0.75-1-0.14-0.03-0.35-0.05-0.58-0.05-0.19 0-0.29-0.04-0.29-0.16 0-0.12 0.12-0.15 0.38-0.16 0.82 0 1.92 0.05 2.39 0.06 0.42 0 1.69-0.06 2.37-0.05 0.24 0 0.37 0.03 0.37 0.15 0 0.13-0.1 0.16-0.31 0.16-0.2 0-0.48 0.02-0.68 0.05-0.47 0.09-0.61 0.39-0.65 0.99-0.04 0.57-0.03 1.05-0.04 3.7l0 3.08zm9.87-7.15l-2.6 0.07c-1.01 0.03-1.43 0.12-1.69 0.5-0.17 0.26-0.26 0.47-0.3 0.61-0.04 0.14-0.09 0.21-0.19 0.21-0.12 0.01-0.16-0.09-0.16-0.27 0-0.27 0.34-1.87 0.37-2.01 0.05-0.23 0.11-0.33 0.21-0.33 0.14 0 0.31 0.17 0.75 0.21 0.51 0.05 1.17 0.09 1.75 0.09l6.91 0c0.56 0.01 0.94-0.05 1.2-0.09 0.26-0.05 0.4-0.08 0.47-0.08 0.12 0 0.14 0.11 0.14 0.37 0 0.37-0.05 1.57-0.05 2.03-0.02 0.17-0.05 0.28-0.15 0.28-0.14 0-0.18-0.09-0.19-0.36l-0.02-0.19c-0.04-0.45-0.51-0.94-2.07-0.97l-2.19-0.05 0 7.15c0 1.6 0 2.98 0.08 3.74 0.05 0.49 0.16 0.87 0.68 0.94 0.24 0.03 0.63 0.07 0.89 0.07 0.19-0.01 0.28 0.05 0.28 0.13 0.01 0.12-0.14 0.17-0.33 0.17-1.15 0-2.25-0.05-2.74-0.05-0.4-0.01-1.5 0.05-2.2 0.05-0.23-0.01-0.35-0.05-0.35-0.17-0.01-0.09 0.07-0.14 0.27-0.14 0.26 0 0.48-0.04 0.64-0.07 0.35-0.07 0.45-0.46 0.5-0.96 0.09-0.73 0.09-2.11 0.09-3.72l0-7.16zm7.94 5.62c0-2.99 1.97-6.85 7.21-6.85 4.34 0 7.05 2.54 7.05 6.54 0 3.99-2.79 7.15-7.22 7.15-5.01 0-7.04-3.75-7.04-6.84zm11.82 0.34c0-3.91-2.25-6.34-5.12-6.34-2 0-4.29 1.11-4.29 5.46 0 3.63 2.01 6.51 5.35 6.51 1.22 0 4.05-0.59 4.05-5.64zm7.16 3.9c0.03 1.36 0.26 1.81 0.61 1.93 0.29 0.1 0.63 0.12 0.91 0.12 0.19 0 0.3 0.03 0.3 0.15 0 0.13-0.15 0.17-0.4 0.17-1.13 0-1.83-0.05-2.16-0.05-0.16 0.01-0.98 0.05-1.88 0.05-0.23 0-0.38-0.02-0.38-0.17-0.01-0.1 0.1-0.14 0.28-0.13 0.23-0.01 0.54-0.02 0.79-0.09 0.45-0.15 0.52-0.65 0.54-2.16l0.16-10.33c0-0.35 0.05-0.59 0.23-0.59 0.19 0 0.35 0.22 0.64 0.54 0.21 0.23 2.86 3.08 5.41 5.61 1.19 1.18 3.54 3.7 3.84 3.98l0.09 0-0.18-7.84c-0.02-1.07-0.17-1.4-0.59-1.57-0.26-0.1-0.68-0.1-0.92-0.1-0.21-0.01-0.28-0.06-0.29-0.16 0-0.14 0.2-0.15 0.46-0.16 0.91 0 1.75 0.05 2.11 0.05 0.19 0 0.85-0.05 1.71-0.05 0.23 0 0.4 0.01 0.4 0.15 0 0.1-0.1 0.16-0.31 0.16-0.18 0-0.32 0-0.52 0.06-0.49 0.13-0.63 0.5-0.65 1.48l-0.19 11.01c0 0.39-0.07 0.54-0.23 0.54-0.19 0.01-0.4-0.19-0.59-0.38-1.1-1.05-3.33-3.34-5.15-5.14-1.9-1.89-3.84-4.06-4.15-4.4l-0.05 0 0.19 7.34zm21.05 0.72c-1.72-1.5-2.16-3.46-2.17-5.15 0-1.18 0.37-3.25 2.04-4.78 1.26-1.15 2.91-1.85 5.52-1.85 1.08 0 1.73 0.07 2.53 0.18 0.67 0.09 1.22 0.24 1.75 0.3 0.19 0.02 0.26 0.1 0.26 0.21 0 0.14-0.05 0.34-0.08 0.96-0.04 0.57-0.02 1.53-0.05 1.88-0.02 0.26-0.05 0.4-0.21 0.41-0.14 0-0.17-0.15-0.18-0.39-0.02-0.54-0.24-1.15-0.68-1.6-0.58-0.61-1.94-1.08-3.54-1.08-1.52 0-2.51 0.38-3.28 1.08-1.27 1.16-1.61 2.83-1.61 4.52 0 4.15 3.16 6.22 5.5 6.21 1.56 0 2.49-0.17 3.2-0.98 0.29-0.33 0.52-0.84 0.59-1.15 0.05-0.28 0.09-0.35 0.23-0.35 0.12 0 0.15 0.12 0.16 0.26-0.01 0.21-0.21 1.73-0.39 2.32-0.08 0.3-0.15 0.39-0.45 0.51-0.7 0.28-2.02 0.4-3.14 0.4-2.39 0-4.39-0.52-5.98-1.9zm11.79-4.94c0-2.98 1.97-6.84 7.21-6.84 4.34 0 7.05 2.53 7.05 6.53 0 4-2.79 7.16-7.22 7.16-5.01 0-7.04-3.75-7.04-6.85zm11.82 0.34c0-3.91-2.25-6.34-5.11-6.33-2.01 0-4.29 1.11-4.29 5.46 0 3.63 2.01 6.51 5.35 6.51 1.22 0 4.05-0.6 4.05-5.64zm6.83-6.86c0.05-0.29 0.15-0.45 0.29-0.45 0.14 0 0.25 0.09 0.48 0.54l4.76 9.84 4.75-9.96c0.12-0.28 0.22-0.42 0.39-0.42 0.15 0 0.26 0.17 0.31 0.54l1.58 10.79c0.16 1.1 0.33 1.6 0.85 1.76 0.51 0.16 0.86 0.18 1.08 0.18 0.15 0 0.28 0.01 0.28 0.12 0 0.14-0.21 0.19-0.45 0.19-0.44 0-2.85-0.06-3.54-0.1-0.4-0.04-0.51-0.09-0.51-0.19 0-0.09 0.07-0.14 0.2-0.2 0.1-0.03 0.16-0.26 0.08-0.75l-1.04-7.68-0.07 0-3.81 7.92c-0.4 0.82-0.48 0.98-0.64 0.98-0.16 0-0.33-0.35-0.62-0.87-0.42-0.8-1.79-3.48-2-3.96-0.16-0.37-1.21-2.56-1.82-3.88l-0.07 0-0.91 6.95c-0.03 0.32-0.05 0.54-0.05 0.82 0 0.33 0.23 0.49 0.53 0.56 0.31 0.06 0.56 0.08 0.73 0.08 0.14 0 0.26 0.04 0.27 0.12 0 0.16-0.16 0.2-0.42 0.2-0.74-0.01-1.52-0.06-1.84-0.05-0.33 0-1.17 0.05-1.73 0.05-0.17 0-0.31-0.03-0.31-0.2 0-0.08 0.11-0.12 0.28-0.12 0.14 0 0.26 0 0.52-0.05 0.49-0.11 0.63-0.79 0.71-1.38l1.73-11.39zm17.56 5c-0.01-2.66 0-3.14-0.04-3.7-0.03-0.59-0.17-0.87-0.75-0.99-0.14-0.04-0.44-0.06-0.68-0.06-0.2 0-0.3-0.03-0.3-0.15 0-0.12 0.13-0.16 0.39-0.16 0.92 0 2.02 0.05 2.51 0.05 0.71 0 1.73-0.06 2.53-0.05 2.19-0.01 2.97 0.73 3.25 0.99 0.38 0.37 0.87 1.15 0.87 2.08 0 2.48-1.82 4.22-4.3 4.22-0.09 0.01-0.28 0-0.37-0.01-0.09-0.02-0.21-0.04-0.21-0.16 0-0.14 0.12-0.19 0.49-0.19 0.97 0.01 2.34-1.09 2.34-2.88 0-0.57-0.06-1.75-1.03-2.61-0.63-0.57-1.35-0.69-1.75-0.69-0.26 0-0.53 0.02-0.68 0.07-0.09 0.03-0.14 0.14-0.14 0.33l0 6.99c0 1.6 0 2.98 0.09 3.73 0.05 0.48 0.16 0.88 0.68 0.95 0.24 0.03 0.63 0.06 0.89 0.07 0.19 0 0.28 0.05 0.28 0.13 0 0.12-0.14 0.18-0.34 0.18-1.14 0-2.25-0.05-2.71-0.06-0.4 0.01-1.5 0.06-2.19 0.06-0.23-0.01-0.35-0.05-0.35-0.18 0-0.08 0.07-0.14 0.28-0.14 0.27 0 0.48-0.03 0.63-0.08 0.35-0.06 0.44-0.45 0.51-0.95 0.09-0.73 0.09-2.12 0.09-3.72l0-3.07zm11.26 3.58c-0.09 0-0.12 0.04-0.16 0.14l-0.94 2.5c-0.17 0.43-0.26 0.86-0.26 1.07 0 0.32 0.15 0.54 0.7 0.54l0.26 0c0.21-0.01 0.26 0.04 0.26 0.14 0 0.14-0.11 0.17-0.3 0.17-0.56 0-1.31-0.05-1.85-0.05-0.19 0-1.16 0.05-2.06 0.05-0.23 0-0.33-0.03-0.33-0.17 0-0.11 0.07-0.14 0.21-0.14 0.15-0.01 0.4-0.02 0.54-0.04 0.8-0.1 1.14-0.7 1.48-1.57l4.38-10.96c0.21-0.51 0.31-0.7 0.49-0.7 0.15 0 0.26 0.15 0.43 0.56 0.42 0.95 3.21 8.08 4.32 10.73 0.67 1.57 1.17 1.82 1.54 1.9 0.26 0.05 0.52 0.07 0.73 0.07 0.14 0 0.23 0.02 0.23 0.14 0 0.14-0.16 0.18-0.8 0.17-0.63 0-1.9 0-3.3-0.03-0.31-0.02-0.52-0.02-0.52-0.14 0-0.1 0.07-0.14 0.24-0.16 0.12-0.03 0.25-0.19 0.15-0.4l-1.39-3.7c-0.04-0.09-0.09-0.13-0.18-0.12l-3.89 0zm3.56-0.87c0.08-0.01 0.1-0.06 0.09-0.11l-1.57-4.32c-0.02-0.07-0.03-0.15-0.09-0.15-0.05 0-0.08 0.09-0.1 0.16l-1.61 4.29c-0.02 0.07 0 0.12 0.07 0.12l3.21 0.01zm8.93 3.05c0.03 1.36 0.26 1.81 0.61 1.94 0.3 0.11 0.62 0.12 0.91 0.13 0.19 0 0.29 0.03 0.29 0.14 0 0.13-0.15 0.17-0.4 0.17-1.13 0-1.83-0.06-2.16-0.05-0.16 0-0.98 0.05-1.88 0.05-0.23-0.01-0.38-0.02-0.38-0.17-0.01-0.11 0.1-0.14 0.28-0.14 0.22 0 0.54-0.02 0.78-0.09 0.45-0.14 0.52-0.65 0.54-2.16l0.16-10.33c0-0.35 0.05-0.59 0.23-0.59 0.19 0 0.35 0.23 0.65 0.54 0.21 0.23 2.86 3.07 5.41 5.61 1.19 1.18 3.54 3.69 3.84 3.98l0.09 0-0.18-7.83c-0.01-1.07-0.17-1.4-0.59-1.58-0.26-0.1-0.68-0.1-0.93-0.1-0.21 0.01-0.27-0.05-0.28-0.15 0-0.14 0.2-0.16 0.46-0.16 0.91 0.01 1.74 0.05 2.11 0.06 0.2-0.01 0.86-0.05 1.72-0.06 0.23 0.01 0.4 0.02 0.4 0.15 0 0.11-0.1 0.17-0.31 0.16-0.17 0-0.31 0-0.52 0.05-0.49 0.15-0.63 0.51-0.65 1.49l-0.19 11.01c0 0.38-0.07 0.54-0.23 0.55-0.18-0.01-0.4-0.2-0.59-0.39-1.1-1.04-3.33-3.33-5.15-5.13-1.9-1.88-3.84-4.07-4.16-4.4l-0.05 0 0.19 7.33zm15.55-5.76c0-2.65 0-3.14-0.03-3.7-0.03-0.59-0.21-0.89-0.6-0.98-0.19-0.05-0.42-0.07-0.62-0.07-0.18 0-0.28-0.03-0.28-0.17 0-0.1 0.14-0.14 0.42-0.14 0.67-0.01 1.76 0.06 2.27 0.05 0.44 0 1.47-0.05 2.13-0.05 0.23 0 0.37 0.04 0.37 0.14 0 0.14-0.1 0.17-0.28 0.18-0.17 0-0.32 0.02-0.52 0.05-0.47 0.09-0.61 0.38-0.64 1-0.03 0.55-0.04 1.05-0.04 3.7l0 3.07c0 1.7 0 3.07 0.07 3.82 0.05 0.47 0.18 0.78 0.7 0.85 0.24 0.03 0.62 0.08 0.89 0.07 0.19 0 0.27 0.06 0.27 0.14 0 0.12-0.14 0.18-0.33 0.18-1.15 0-2.26-0.05-2.72-0.05-0.4 0-1.5 0.05-2.2 0.05-0.23-0.01-0.35-0.05-0.35-0.17-0.01-0.09 0.07-0.14 0.27-0.15 0.26 0 0.48-0.04 0.63-0.07 0.35-0.07 0.46-0.37 0.51-0.87 0.08-0.73 0.09-2.11 0.09-3.8l0-3.08zm7.89 0.01c0-2.65 0-3.15-0.04-3.7-0.03-0.6-0.17-0.87-0.75-1-0.13-0.03-0.43-0.05-0.68-0.04-0.19 0-0.3-0.04-0.3-0.16-0.01-0.13 0.12-0.16 0.38-0.16 0.92 0 2.02 0.05 2.51 0.05 0.56 0 4.03 0 4.36-0.02 0.33-0.04 0.62-0.07 0.75-0.11 0.08-0.02 0.19-0.06 0.28-0.07 0.09 0 0.1 0.07 0.1 0.16 0 0.12-0.09 0.34-0.15 1.14-0.01 0.18-0.05 0.94-0.09 1.15-0.02 0.09-0.05 0.19-0.17 0.19-0.12 0-0.16-0.09-0.16-0.24 0-0.12-0.02-0.42-0.1-0.63-0.13-0.31-0.3-0.53-1.17-0.63-0.3-0.03-2.13-0.07-2.48-0.07-0.08 0-0.12 0.05-0.12 0.18l0 4.42c0 0.12 0.02 0.19 0.12 0.19 0.38 0 2.39 0 2.79-0.03 0.42-0.04 0.68-0.1 0.84-0.27 0.12-0.15 0.19-0.23 0.28-0.23 0.07 0 0.12 0.03 0.13 0.15 0 0.1-0.09 0.38-0.14 1.26-0.04 0.35-0.07 1.05-0.07 1.18 0 0.13 0 0.33-0.16 0.33-0.12 0-0.16-0.07-0.16-0.16-0.02-0.17-0.01-0.4-0.07-0.63-0.09-0.35-0.34-0.61-0.98-0.68-0.33-0.04-2.06-0.05-2.48-0.05-0.08 0-0.1 0.07-0.1 0.18l0 1.37c0 0.59-0.02 2.2 0 2.7 0.04 1.21 0.31 1.47 2.09 1.47 0.46-0.01 1.19 0 1.64-0.21 0.46-0.21 0.66-0.57 0.79-1.29 0.04-0.2 0.07-0.26 0.19-0.26 0.14-0.01 0.14 0.13 0.14 0.31 0 0.4-0.14 1.58-0.22 1.94-0.13 0.46-0.28 0.45-0.95 0.46-2.63 0-3.8-0.11-4.83-0.11-0.41 0-1.5 0.05-2.2 0.05-0.23 0.01-0.35-0.05-0.35-0.17 0-0.09 0.07-0.14 0.28-0.14 0.26 0 0.47-0.03 0.63-0.07 0.35-0.07 0.44-0.46 0.51-0.96 0.08-0.73 0.08-2.11 0.09-3.72l0-3.07zm10.07 7.92c-0.28-0.12-0.34-0.21-0.33-0.59-0.01-0.96 0.07-2.01 0.08-2.29 0.02-0.26 0.07-0.46 0.21-0.45 0.16 0 0.17 0.16 0.17 0.3 0.01 0.22 0.07 0.6 0.16 0.89 0.39 1.28 1.42 1.76 2.49 1.75 1.58 0.01 2.35-1.06 2.34-1.98 0-0.86-0.26-1.68-1.71-2.8l-0.8-0.63c-1.92-1.5-2.58-2.72-2.58-4.13 0-1.92 1.6-3.3 4.03-3.3 1.13 0 1.86 0.18 2.32 0.3 0.16 0.03 0.25 0.09 0.25 0.21-0.01 0.23-0.08 0.73-0.08 2.1 0.01 0.38-0.05 0.52-0.19 0.53-0.12 0-0.17-0.11-0.17-0.32 0-0.16-0.09-0.7-0.45-1.16-0.26-0.32-0.77-0.85-1.9-0.85-1.29 0-2.08 0.75-2.08 1.8 0 0.8 0.4 1.41 1.85 2.52l0.49 0.36c2.09 1.63 2.86 2.8 2.86 4.45 0 1.02-0.39 2.21-1.64 3.04-0.87 0.56-1.85 0.72-2.78 0.72-1.01 0-1.8-0.12-2.55-0.46zm-256.89-14.15l0.4 0c2.67-9.11 11.79-37.83 15.26-50.51 0.99-3.66 1.09-5.05 1.09-6.34 0-1.78-1.08-2.97-5.64-2.97-0.49 0-0.89-0.3-0.89-0.7 0-0.49 0.5-0.68 1.68-0.68 5.05 0 9.21 0.29 10.1 0.3 0.69 0 4.95-0.3 8.02-0.29 0.89 0 1.39 0.19 1.39 0.6 0 0.48-0.3 0.78-0.89 0.78-0.39 0.01-2.27 0.1-3.37 0.5-2.97 1.09-4.55 5.25-6.43 10.69-4.36 12.57-14.37 44.06-18.23 55.16-2.57 7.32-3.07 8.51-4.16 8.51-0.99 0-1.58-1.29-2.97-5.16l-19.39-55.06-0.2 0c-3.57 9.5-17.14 45.74-20.7 54.95-1.58 4.15-2.08 5.25-3.27 5.25-0.99 0-1.48-1.09-3.47-7.83l-17.61-58.73c-1.58-5.24-2.87-6.73-5.44-7.72-1.29-0.5-3.77-0.59-4.46-0.6-0.5 0-0.89-0.09-0.9-0.69 0-0.5 0.6-0.69 1.58-0.68 5.15 0 10.6 0.29 11.69 0.29 0.89 0 5.24-0.29 10.2-0.29 1.39 0 1.78 0.29 1.78 0.69 0 0.59-0.5 0.7-0.99 0.69-0.79 0-2.68 0.01-3.87 0.6-0.59 0.28-1.28 1.08-1.28 2.37 0 1.29 0.89 4.75 1.88 9.11 1.49 6.34 11.77 42.68 13.26 47.93l0.2 0 21.01-56.44c1.48-4.06 1.88-4.55 2.47-4.55 0.69 0 1.29 1.29 2.48 4.66l19.69 56.15z"/>
  </g>
  <g id="Layer6">
    <path id="developing" d="M51.31 160.21c0.19-0.66 0.24-1.04 0.24-1.29 0-0.65-0.39-0.7-1.14-0.7-0.29 0-0.56-0.02-0.56-0.31-0.01-0.37 0.41-0.37 0.58-0.37 0.17-0.01 1.67 0.2 2.87 0.19 1.77 0 2.67-0.19 4.54-0.19 4.12 0 6.24 2.72 6.24 5.86 0 3.93-3.33 9.56-9.57 9.56-1.82 0-4.97-0.2-6.48-0.2-1.22 0.01-1.68 0.2-1.95 0.2-0.22-0.01-0.41-0.15-0.41-0.32 0-0.32 0.34-0.44 0.76-0.46 1.36-0.08 1.5-0.49 1.84-1.68l3.04-10.29zm0.14 8.67c-0.12 0.49-0.64 2.24-0.63 2.6 0 0.44 0.12 0.78 2.35 0.78 6.92 0 8.11-7.85 8.11-9.74 0-4.23-3.76-4.27-5.1-4.28-1.46 0-1.6 0.14-1.99 1.45l-2.74 9.18zm15.78-0.51c-0.05 0.43-0.05 0.61-0.05 0.76 0 2.38 1.58 2.59 2.04 2.6 0.44-0.01 1.62-0.07 3.16-1.56 0.53-0.53 0.58-0.58 0.7-0.57 0.15-0.01 0.2 0.12 0.2 0.24 0 0.41-2.41 3.3-5.05 3.3-1.82 0-3.67-1.34-3.67-4.01 0-4.76 4.62-7.43 7.21-7.43 1.36 0 3.04 0.85 3.04 2.56 0 2.62-3.67 3.41-4.67 3.59l-2.91 0.53zm5.32-4.76c0-0.21 0-1.35-1.16-1.35-1.8 0-3.48 2.7-4.06 5.46 1.67-0.19 5.22-0.85 5.22-4.1zm3.98 7.46c0-1.33 0.46-2.5 1.68-5.39 0.22-0.49 0.87-2.06 0.87-2.35 0-0.24-0.15-0.32-0.24-0.32-0.37 0-1.51 0.95-2.26 1.94-0.03 0.03-0.19 0.25-0.37 0.25-0.12 0-0.19-0.12-0.19-0.22 0-0.56 2.28-3.28 4.52-3.28 1.02 0 1.14 0.73 1.14 0.97 0 1.04-2.84 7.01-2.84 8.43 0 0.7 0.56 1 1.14 1 3.04 0 5.92-5 5.92-6.78 0-0.41-0.07-0.53-0.48-1.14-0.17-0.27-0.34-0.52-0.34-1.07 0-0.92 0.59-1.41 1.17-1.41 0.68 0 1.16 0.68 1.17 1.67 0 3.5-4.2 9.76-8.82 9.76-0.99 0-2.06-0.75-2.06-2.07zm13.94-2.69c-0.05 0.44-0.05 0.61-0.05 0.75 0 2.38 1.58 2.6 2.04 2.6 0.44 0.01 1.63-0.07 3.16-1.55 0.54-0.54 0.59-0.58 0.71-0.59 0.14 0 0.19 0.12 0.19 0.24 0 0.41-2.41 3.31-5.05 3.3-1.82 0-3.67-1.33-3.66-4 0-4.76 4.61-7.43 7.21-7.43 1.36 0 3.04 0.85 3.03 2.55 0 2.62-3.66 3.42-4.66 3.59l-2.91 0.53zm5.31-4.76c0-0.21 0.01-1.36-1.16-1.35-1.8 0-3.47 2.69-4.06 5.47 1.67-0.2 5.22-0.86 5.22-4.11zm6.44 4.05c-0.24 0.72-1.04 3.06-1.04 3.59 0 0.17 0.07 0.35 0.27 0.34 0.61 0 1.99-1.69 2.33-2.23 0.07-0.1 0.12-0.17 0.22-0.17 0.12 0 0.26 0.1 0.26 0.25 0 0.72-2.65 3.74-4.35 3.73-0.75 0-1.17-0.51-1.17-1.36 0.01-0.85 0.61-2.87 0.9-3.66l2.79-8.12c0.17-0.51 0.25-0.77 0.25-1.02 0-0.54-0.66-0.58-0.76-0.58-0.82-0.02-0.92-0.02-0.92-0.27 0-0.41 0.41-0.41 1.09-0.4 0.34-0.01 1.41 0 2.7-0.54 0.46-0.17 0.51-0.2 0.58-0.2 0.1 0 0.32 0.08 0.32 0.27 0 0.1-0.03 0.12-0.1 0.37l-3.38 10.01zm7.72 5.48c-2.43 0-4.28-2.11-4.28-4.71 0-3.59 3.55-6.71 7.19-6.7 2.01 0.01 4.42 1.7 4.42 4.64 0 4.17-4.37 6.77-7.33 6.77zm2.94-10.88c-3.16-0.01-4.93 4.93-4.93 7.71 0 1.02 0.34 2.62 2.04 2.63 1.46 0 2.21-0.87 2.5-1.19 1.63-1.92 2.5-4.71 2.5-6.48 0-1.17-0.41-2.67-2.11-2.67zm6.97 13.6c-0.1 0.32-0.15 0.56-0.15 0.73 0 0.49 0.44 0.6 0.88 0.65 0.87 0.1 1.17 0.12 1.16 0.44 0 0.34-0.32 0.34-0.53 0.34-0.1 0.01-1.53-0.19-3.2-0.2-1.99 0.01-2.92 0.2-3.04 0.2-0.22 0-0.24-0.17-0.24-0.27 0-0.44 0.48-0.47 1.04-0.51 1.16-0.1 1.46-0.54 1.85-1.73l4.17-12.74c-0.58 0.05-1.5 0.24-1.72 0.31-0.07 0.03-0.15 0.03-0.2 0.03-0.15 0-0.22-0.12-0.22-0.24 0-0.42 0.24-0.44 2.38-0.8l0.15-0.48c0.36-1.22 0.56-1.87 0.7-1.99 0.1-0.1 0.15-0.15 1.77-0.15 0.32 0 0.36 0.05 0.37 0.22 0 0.31-0.68 1.99-0.68 2.13 0.61-0.1 1.07-0.2 2.26-0.19 0.87 0 4 0 4 3.3 0 2.8-2.26 8.23-7.36 8.23-1.44 0-2.02-0.43-2.38-0.73l-1.02 3.45zm1.72-5.82c-0.25 0.68-0.32 1.19-0.32 1.33 0.01 0.71 0.69 1.18 1.61 1.19 3.57 0 5.42-5.9 5.41-7.94 0.01-2.11-1.43-2.33-2.62-2.33-0.58 0-1.04 0.07-1.48 0.12l-2.6 7.62zm13.31 1.22c0 0.14 0.07 0.29 0.22 0.29 0.58 0 2.04-1.72 2.25-2.06 0.05-0.08 0.15-0.22 0.27-0.22 0.12-0.01 0.27 0.12 0.27 0.26 0 0.61-2.72 3.64-4.52 3.64-0.8 0-1.05-0.41-1.04-1.14 0-1.54 1.7-5.59 2.5-7.43 0.22-0.51 0.39-0.85 0.39-1.12 0-0.04 0-0.24-0.2-0.24-0.51 0-2.5 2.02-2.55 2.02-0.13-0.01-0.24-0.12-0.24-0.27 0-0.46 2.5-3.25 4.69-3.25 0.72 0 0.77 0.61 0.77 0.97 0 1.31-2.82 7.28-2.82 8.55zm2.67-10.57c-0.8 0-1.02-0.75-1.02-1.24 0-0.82 0.68-1.84 1.56-1.84 1 0 1 1.02 1 1.24 0 0.88-0.68 1.85-1.53 1.84zm6.09 7.21c1.58-2.6 3.81-6.19 6.78-6.19 0.31 0 1.75 0 1.75 1.5 0 0.73-0.32 1.73-1.02 3.47-0.63 1.63-1.43 3.64-1.43 4.39 0 0.24 0.12 0.44 0.29 0.44 0.37 0 1.31-0.85 1.99-1.83 0.37-0.49 0.39-0.56 0.54-0.56 0.12 0 0.24 0.14 0.24 0.29 0 0.48-2.35 3.74-4.51 3.73-0.95 0.01-1.1-0.6-1.1-1.16 0-1.41 2.67-7.72 2.68-8.52 0-0.55-0.39-0.63-0.56-0.62-1.78 0-5.23 4.44-6.88 9.1-0.32 0.89-0.49 0.89-1.97 0.89-0.22 0.01-0.59 0.01-0.58-0.31 0-0.2 2.79-7.58 2.79-8.96 0-0.32-0.2-0.34-0.24-0.34-0.54 0-2.26 2.21-2.46 2.21-0.1 0-0.24-0.15-0.24-0.29 0-0.36 2.26-3.43 4.39-3.42 0.39-0.01 0.85 0.12 0.85 1.19 0 0.99-0.65 2.91-1.04 4l-0.31 0.92 0.05 0.05zm19.89-4.58c0.22 0.34 0.71 1.04 0.7 2.12 0 2.08-2.04 4.1-4.86 4.1-1.04 0-1.45-0.19-2.01-0.46-0.07-0.05-0.17-0.1-0.19-0.1-0.34 0.12-0.51 0.22-0.51 0.56 0 0.78 1.34 1.31 2.7 1.85 2.38 1.02 4.08 1.74 4.08 3.57 0 1.06-1.1 3.55-5.59 3.54-4.06 0-5.73-1.7-5.73-3.21 0-1.7 1.77-2.26 3.4-2.74 0.27-0.1 0.71-0.24 0.8-0.26-0.7-0.42-1.07-0.95-1.07-1.66 0-1.28 0.95-1.77 1.43-2.04-1.33-1.12-1.46-2.23-1.46-2.82 0-2.6 2.6-4.02 4.83-4.02 1.09 0 1.89 0.31 2.36 0.51 0.29 0.1 0.46 0.15 0.77 0.15 0.32 0 1.83-0.1 1.94-0.1 0.21 0 0.73 0 0.73 0.14 0 0.13-0.19 0.49-0.27 0.67-0.09 0.2-0.31 0.19-0.85 0.19l-1.21 0.02zm-9.25 11.58c0 1.61 2.04 3.02 4.22 3.02 1.23-0.01 3.01-0.54 3.01-1.88 0-1.22-0.97-1.84-4.49-3.33-0.88 0.14-2.74 0.51-2.75 2.19zm6.27-12.65c-2.07 0-3.28 3.06-3.28 4.64 0 0.51 0.12 2.09 1.61 2.09 1.87 0 3.27-2.57 3.28-4.62 0-0.65-0.17-2.11-1.6-2.11zm17.89 10.03c1.44-1.7 4.2-4.95 4.21-6.95 0-0.38-0.08-0.68-0.24-1.11-0.24-0.66-0.26-0.82-0.27-1.05 0-0.58 0.37-1.43 1.22-1.43 0.9 0 1.12 0.82 1.12 1.53 0 1.86-1.6 4.56-4.98 8.69-5.1 6.26-6.36 6.44-7.87 6.44-1.29 0-1.85-0.66-1.85-1.29 0-0.73 0.65-1.02 1.12-1.01 0.61 0 0.95 0.36 1.46 0.87 0.27 0.29 0.41 0.37 0.65 0.37 0.65-0.01 1.7-0.66 2.35-1.99 0.56-1.14 1.12-2.89 1.12-7.38 0-0.52 0-4.91-1.09-4.91-0.68-0.01-1.24 1.02-2.02 2.38-0.05 0.13-0.14 0.25-0.29 0.25-0.07 0-0.24-0.05-0.24-0.32 0-0.39 1.51-3.61 3.81-3.62 1.02 0 2.11 0.41 2.11 5.61 0 2.13-0.22 3.86-0.36 4.92l0.04 0zm10.47 0.88c-2.43 0-4.27-2.12-4.27-4.72 0-3.59 3.55-6.7 7.19-6.7 2.01 0 4.42 1.7 4.41 4.64 0 4.18-4.37 6.77-7.33 6.78zm2.94-10.88c-3.16-0.01-4.93 4.92-4.93 7.72 0 1.03 0.34 2.62 2.04 2.62 1.46 0 2.21-0.87 2.5-1.18 1.63-1.92 2.5-4.71 2.5-6.49 0-1.17-0.41-2.67-2.11-2.67zm14.93 5.08c0 0.04-3.76 5.83-7.26 5.83-1.19-0.01-1.19-1.13-1.19-1.27 0-1.09 0.81-3.33 0.97-3.79 0.27-0.78 1.87-4.59 1.87-4.83 0-0.16-0.14-0.24-0.24-0.24-0.34 0-1.55 0.85-2.26 1.99-0.08 0.13-0.2 0.24-0.31 0.25-0.14 0-0.22-0.15-0.22-0.27 0-0.73 2.33-3.28 4.68-3.28 0.56 0 0.9 0.22 0.9 0.78 0 1-2.94 7.87-2.94 8.74 0 0.39 0.29 0.44 0.46 0.44 1.04 0 3.23-2.02 5.07-4.61 0.68-0.98 1.24-1.8 2.04-4.44 0.15-0.46 0.25-0.8 0.75-0.83l1.46-0.08c0.14 0 0.39 0.05 0.39 0.29 0 0.46-2.91 7.77-2.91 9.2 0 0.15 0.07 0.31 0.25 0.32 0.14 0 1.18-0.37 2.48-2.19 0.14-0.2 0.21-0.22 0.26-0.22 0.07-0.01 0.24 0.07 0.24 0.24 0 1.01-2.96 3.78-4.93 3.78-0.27 0-0.9-0.19-0.9-0.95 0-0.68 0.85-3.23 1.39-4.84l-0.05-0.04zm9.47 1.31c0.15-0.36 0.37-0.79 0.49-1.06l0.7-1.46c0.15-0.31 2.22-4.4 4.13-4.39 0.65 0 1.27 0.44 1.26 1.36 0 0.68-0.39 1.87-1.36 1.87-0.29 0-0.9-0.14-0.9-0.78l0.03-0.41c0-0.29-0.15-0.37-0.25-0.37-1.53 0.01-4.97 8.84-5.24 9.25-0.12 0.2-0.46 0.2-1.02 0.2-0.95 0-1.04 0.01-1.05-0.34 0.01-0.36 2.55-7.75 2.55-8.85 0-0.08 0-0.39-0.24-0.4-0.31 0.01-1.18 0.92-1.74 1.77-0.2 0.29-0.49 0.78-0.68 0.78-0.08 0-0.25-0.07-0.24-0.27 0-0.53 2.33-3.81 4.15-3.81 0.53 0 0.85 0.32 0.85 1.28 0 1.22-1.24 4.93-1.48 5.58l0.05 0.05zm18.53-5.82c-0.82 2.55-0.85 2.65-1.97 6.29-0.15 0.43-0.48 1.57-0.48 1.94 0 0.32 0.15 0.44 0.29 0.44 0.39-0.01 1.63-1 2.36-2.14 0.08-0.14 0.2-0.27 0.32-0.27 0.14 0 0.27 0.15 0.27 0.27 0 0.72-2.65 3.78-4.64 3.78-0.51 0-1-0.39-1-1.41 0-0.73 0.2-1.51 0.31-1.97 0.42-1.67 1.41-4.61 2.22-6.95l-1.53 0.01c-0.24 0-0.51-0.01-0.51-0.2 0-0.61 0.46-0.6 1.12-0.61l1.17 0c0.19-0.43 0.8-2.74 1.09-2.86 0.27-0.09 1.24-0.12 1.58-0.12 0.31 0 0.53 0 0.53 0.3 0 0.19-0.34 1.19-0.43 1.45l-0.32 0.87c-0.02 0.08-0.07 0.27-0.13 0.37l2.52-0.01c0.2 0.01 0.2 0.2 0.2 0.25 0 0.46-0.41 0.55-0.66 0.55l-2.31 0.01zm5.97 5.83c0.15-0.37 0.36-0.8 0.49-1.07l0.71-1.46c0.15-0.32 2.21-4.39 4.13-4.39 0.66 0 1.27 0.44 1.27 1.36-0.01 0.68-0.39 1.87-1.36 1.87-0.3 0-0.9-0.15-0.9-0.78l0.02-0.42c0-0.29-0.15-0.36-0.24-0.37-1.53 0-4.98 8.84-5.24 9.25-0.13 0.2-0.47 0.2-1.03 0.2-0.95 0-1.05 0-1.05-0.35 0-0.37 2.56-7.75 2.56-8.86 0-0.07 0-0.38-0.25-0.38-0.32 0-1.19 0.92-1.75 1.77-0.2 0.29-0.49 0.78-0.68 0.78-0.08 0-0.24-0.07-0.25-0.27 0-0.53 2.33-3.81 4.15-3.81 0.54 0 0.86 0.31 0.85 1.29 0.01 1.22-1.24 4.93-1.48 5.59l0.05 0.05zm15.83-1.31c0 0.04-3.77 5.83-7.26 5.83-1.19-0.01-1.19-1.12-1.2-1.27 0-1.09 0.81-3.33 0.97-3.79 0.27-0.78 1.87-4.59 1.87-4.83 0-0.18-0.14-0.24-0.24-0.24-0.34 0-1.56 0.85-2.26 1.99-0.07 0.13-0.2 0.24-0.31 0.24-0.15 0-0.22-0.14-0.22-0.26 0-0.73 2.33-3.29 4.69-3.28 0.56 0 0.9 0.22 0.9 0.77 0 1-2.94 7.87-2.94 8.74 0 0.4 0.29 0.44 0.46 0.44 1.04 0 3.23-2.01 5.08-4.61 0.68-0.98 1.24-1.8 2.04-4.45 0.14-0.46 0.24-0.8 0.75-0.82l1.45-0.07c0.15-0.01 0.39 0.05 0.39 0.29 0 0.46-2.91 7.77-2.91 9.2 0 0.15 0.07 0.32 0.24 0.31 0.15 0.01 1.19-0.36 2.47-2.17 0.15-0.2 0.22-0.22 0.27-0.23 0.07 0 0.24 0.07 0.24 0.25 0 1.02-2.96 3.79-4.93 3.79-0.26 0-0.9-0.19-0.9-0.95 0-0.68 0.85-3.23 1.39-4.84l-0.05-0.04zm5.05 3.67c0-0.39 0.25-1.34 0.83-1.34 0.51 0 0.83 0.42 1.57 1.41 0.9 1.19 1.46 1.38 1.9 1.38 0.9 0 1.38-0.97 1.38-1.62 0-0.76-0.44-1.29-1.73-2.58-1.36-1.41-1.96-2.24-1.97-3.06 0-1.36 1.55-3.47 4.49-3.47 1.65 0 2.94 0.51 2.94 1.38 0 0.41-0.17 1.49-0.78 1.48-0.49 0-0.9-0.43-1.26-0.8-0.37-0.38-1.19-1.22-2.31-1.21-0.17 0-1.11 0.09-1.11 1 0 0.78 0.73 1.7 2.7 3.69 0.85 0.87 1.38 1.53 1.38 2.5 0 1.78-2.07 3.38-4.57 3.38-0.46-0.01-3.47-0.05-3.47-2.14zm15.33-8.18c-0.83 2.55-0.85 2.64-1.97 6.29-0.15 0.44-0.48 1.58-0.49 1.95 0.01 0.32 0.15 0.44 0.29 0.43 0.39 0.01 1.63-0.99 2.35-2.13 0.08-0.15 0.2-0.26 0.32-0.27 0.14 0.01 0.27 0.15 0.27 0.27 0 0.73-2.65 3.79-4.64 3.79-0.51 0-0.99-0.39-0.99-1.41 0-0.73 0.19-1.5 0.31-1.97 0.41-1.67 1.41-4.61 2.21-6.94l-1.53-0.01c-0.24 0.01-0.51 0-0.51-0.19 0-0.6 0.46-0.61 1.12-0.6l1.16 0c0.19-0.44 0.8-2.75 1.09-2.86 0.27-0.1 1.24-0.13 1.58-0.12 0.32-0.01 0.54 0 0.54 0.29 0 0.2-0.35 1.19-0.44 1.46l-0.32 0.87c-0.02 0.07-0.07 0.27-0.12 0.36l2.53 0c0.19 0 0.19 0.19 0.19 0.25 0 0.45-0.41 0.56-0.66 0.55l-2.3 0zm11.87 5.57c-0.05 0.43-0.05 0.6-0.05 0.75 0 2.38 1.58 2.6 2.04 2.6 0.44 0 1.63-0.07 3.16-1.56 0.53-0.53 0.59-0.58 0.71-0.58 0.15 0 0.2 0.12 0.2 0.24 0 0.41-2.4 3.3-5.06 3.3-1.82-0.01-3.67-1.34-3.66-4.02 0-4.75 4.62-7.43 7.21-7.42 1.36 0 3.04 0.85 3.04 2.55 0 2.62-3.67 3.42-4.66 3.59l-2.91 0.53zm5.32-4.76c0-0.22 0.01-1.36-1.17-1.36-1.8-0.01-3.47 2.69-4.05 5.46 1.67-0.19 5.22-0.85 5.22-4.1zm3.98 7.46c0-1.34 0.46-2.5 1.67-5.4 0.22-0.48 0.87-2.06 0.88-2.35 0-0.24-0.14-0.32-0.24-0.32-0.36 0-1.5 0.95-2.26 1.94-0.02 0.02-0.19 0.24-0.36 0.24-0.13 0-0.2-0.12-0.2-0.22 0-0.56 2.29-3.28 4.52-3.28 1.02-0.01 1.15 0.73 1.14 0.97 0 1.04-2.84 7.02-2.84 8.42 0 0.71 0.56 1 1.14 1 3.04 0 5.92-5 5.93-6.78-0.01-0.4-0.08-0.53-0.49-1.13-0.17-0.27-0.34-0.51-0.34-1.07 0-0.92 0.58-1.41 1.17-1.41 0.68 0 1.16 0.68 1.16 1.68 0 3.49-4.2 9.76-8.81 9.75-1 0.01-2.07-0.75-2.06-2.06zm13.94-2.7c-0.05 0.44-0.05 0.61-0.05 0.75 0 2.39 1.58 2.61 2.04 2.6 0.44 0 1.63-0.08 3.16-1.55 0.53-0.54 0.58-0.58 0.7-0.58 0.14 0 0.19 0.12 0.19 0.24 0 0.41-2.4 3.31-5.05 3.3-1.82 0-3.67-1.34-3.66-4.01 0-4.76 4.61-7.43 7.21-7.43 1.36 0 3.04 0.85 3.04 2.55 0 2.62-3.67 3.42-4.66 3.59l-2.91 0.53zm5.32-4.75c0-0.22 0-1.36-1.16-1.36-1.8 0.01-3.48 2.69-4.06 5.46 1.68-0.19 5.22-0.84 5.22-4.1zm6.76 5.02c0.14-0.36 0.36-0.79 0.48-1.07l0.7-1.45c0.15-0.32 2.21-4.39 4.13-4.4 0.66 0 1.27 0.44 1.27 1.36 0 0.68-0.39 1.87-1.36 1.88-0.29-0.01-0.9-0.15-0.9-0.78l0.03-0.42c0-0.29-0.15-0.36-0.24-0.36-1.53 0-4.98 8.84-5.25 9.25-0.13 0.2-0.46 0.2-1.02 0.2-0.95 0-1.04 0-1.04-0.34 0-0.37 2.55-7.75 2.55-8.87 0-0.07 0-0.39-0.24-0.39-0.31 0-1.19 0.92-1.75 1.78-0.19 0.29-0.48 0.78-0.68 0.78-0.07 0-0.24-0.07-0.24-0.27 0-0.53 2.33-3.81 4.16-3.81 0.53 0 0.85 0.32 0.85 1.29 0 1.21-1.24 4.92-1.48 5.58l0.05 0.04zm12.33 3.62c1.44-1.7 4.2-4.95 4.2-6.94 0-0.39-0.08-0.68-0.24-1.12-0.24-0.66-0.26-0.82-0.27-1.05 0-0.58 0.37-1.43 1.22-1.43 0.9 0.01 1.11 0.83 1.11 1.53 0 1.88-1.6 4.57-4.98 8.7-5.1 6.27-6.36 6.44-7.87 6.43-1.29 0-1.85-0.65-1.85-1.29 0-0.72 0.66-1.01 1.12-1.01 0.6 0 0.95 0.37 1.46 0.87 0.27 0.29 0.41 0.37 0.65 0.36 0.66 0 1.7-0.66 2.35-1.99 0.56-1.14 1.12-2.89 1.12-7.38 0-0.51 0-4.9-1.09-4.9-0.68 0-1.24 1.02-2.01 2.38-0.05 0.12-0.15 0.24-0.29 0.24-0.07 0-0.24-0.05-0.24-0.32 0-0.39 1.51-3.61 3.81-3.61 1.02 0 2.11 0.41 2.11 5.6 0 2.14-0.21 3.86-0.36 4.93l0.05 0zm21.88-4.85c-1.04 1.46-4.22 5.75-6.48 5.75-1.17 0-2.02-1.05-2.02-2.7 0-4.93 4.88-8.76 8.72-8.76 0.87 0 1.14 0.29 1.33 0.56l0.83-2.77c0.03-0.09 0.12-0.41 0.12-0.66 0-0.46-0.34-0.46-0.99-0.46-0.15 0-0.44-0.01-0.44-0.29 0-0.39 0.41-0.39 0.63-0.39l0.51 0.02c1.46 0.05 2.43-0.44 2.77-0.61 0.07-0.05 0.22-0.12 0.34-0.12 0.17 0 0.22 0.14 0.22 0.24 0 0.13-0.34 0.97-0.51 1.46-0.17 0.32-3.93 11.85-3.93 12.58 0 0.15 0.04 0.34 0.24 0.34 0.51 0 1.84-1.77 2.19-2.35 0.05-0.08 0.12-0.22 0.24-0.22 0.03 0 0.27 0.05 0.27 0.27 0 0.46-2.21 3.83-4.52 3.84-0.66 0-0.87-0.41-0.87-1.07 0-1.14 1.38-4.59 1.41-4.62l-0.05-0.04zm-5.12 3.98c1.8-0.01 6.32-5.83 6.32-8.14 0-0.97-0.78-0.97-1.02-0.97-2.77 0-6.12 4.95-6.12 7.75 0 0.46 0 1.36 0.83 1.36zm22.49-9.69c0.17 0 0.51 0.01 0.51 0.28 0 0.19-2.89 8.15-2.89 9.19 0.01 0.2 0.05 0.42 0.25 0.42 0.58 0 1.89-1.72 2.16-2.23 0.09-0.15 0.19-0.22 0.29-0.22 0.12 0 0.21 0.09 0.21 0.22 0 0.61-2.31 3.79-4.47 3.78-0.26 0.01-0.97 0-0.97-1.03 0.01-0.6 0.44-2.01 0.66-2.64l0.49-1.45c0.05-0.12 0.16-0.51 0.19-0.61l-0.05-0.05c-0.1 0.16-0.34 0.51-0.56 0.78-1.72 2.23-3.89 5.02-6.12 5.02-1.36 0.01-2.01-1.17-2.02-2.52 0-4.63 5.2-8.69 8.48-8.69 0.7 0 1.21 0.17 1.45 0.32 0 0 0.32 0.17 0.39 0.17 0.09 0 0.19-0.22 0.22-0.31 0.12-0.34 0.26-0.44 0.97-0.43l0.8 0.02zm-8.84 9.76c1.82 0.01 6.51-6.02 6.51-7.89 0-0.97-1.07-1.04-1.36-1.04-3.2 0-6.1 5.44-6.1 7.67 0 0.32 0 1.27 0.95 1.26zm15.69 0.81c1.44-1.7 4.2-4.95 4.2-6.95 0-0.38-0.08-0.68-0.25-1.12-0.24-0.65-0.27-0.82-0.26-1.04 0-0.58 0.36-1.43 1.21-1.43 0.9 0 1.12 0.82 1.12 1.53 0 1.86-1.6 4.56-4.98 8.69-5.11 6.26-6.37 6.43-7.87 6.43-1.28-0.01-1.85-0.66-1.85-1.29 0.01-0.73 0.66-1.02 1.12-1.02 0.6 0.01 0.95 0.37 1.46 0.87 0.27 0.29 0.41 0.37 0.65 0.36 0.66 0 1.7-0.65 2.35-1.99 0.56-1.14 1.12-2.89 1.12-7.37 0-0.51 0-4.91-1.1-4.91-0.68 0-1.24 1.02-2.02 2.38-0.05 0.12-0.15 0.24-0.29 0.24-0.07 0.01-0.24-0.05-0.24-0.31 0-0.39 1.5-3.62 3.81-3.62 1.02 0 2.11 0.41 2.11 5.61 0 2.13-0.22 3.86-0.37 4.93l0.05 0zm4.42-0.2c0-0.82 0.63-1.67 1.43-1.67 0.51 0 1.07 0.41 1.07 1.09 0 0.73-0.56 1.68-1.48 1.67-0.61 0.01-1.02-0.43-1.02-1.09z"/>
  </g>
</svg>
